<?xml version="1.0" encoding="utf-8"?>
<!-- Generator: Adobe Illustrator 19.0.0, SVG Export Plug-In . SVG Version: 6.00 Build 0)  -->
<svg version="1.1" id="Layer_1" xmlns="http://www.w3.org/2000/svg" xmlns:xlink="http://www.w3.org/1999/xlink" x="0px" y="0px"
	 viewBox="0 0 128 128" style="enable-background:new 0 0 128 128;" xml:space="preserve">
<style type="text/css">
	.st0{fill:#FFFFFF;}
	.st1{fill:#34BFC1;}
</style>
<path id="XMLID_25_" class="st0" d="M0,32v93c0,1.7,1.3,3,3,3h122c1.7,0,3-1.3,3-3V32c0-1.7-1.3-3-3-3H3C1.3,29,0,30.3,0,32z M78,58
	H50c-1.7,0-3-1.3-3-3v0c0-1.7,1.3-3,3-3h28c1.7,0,3,1.3,3,3v0C81,56.7,79.7,58,78,58z"/>
<path id="XMLID_52_" class="st1" d="M116,23H12V12h104V23z M105,0H17v6h88V0z"/>
</svg>
