<?xml version="1.0" encoding="utf-8"?>
<!-- Generator: Adobe Illustrator 19.0.0, SVG Export Plug-In . SVG Version: 6.00 Build 0)  -->
<svg version="1.1" id="Layer_1" xmlns="http://www.w3.org/2000/svg" xmlns:xlink="http://www.w3.org/1999/xlink" x="0px" y="0px"
	 viewBox="0 0 128 128" style="enable-background:new 0 0 128 128;" xml:space="preserve">
<style type="text/css">
	.st0{fill:#FFFFFF;}
	.st1{fill:#35BFC1;}
</style>
<path id="XMLID_34_" class="st0" d="M64,0C28.8,0,0,28.8,0,64s28.8,64,64,64s64-28.8,64-64S99.3,0,64,0z M64,120C33,120,8,95,8,64
	S33,8,64,8s56,25,56,56S95,120,64,120z"/>
<path id="XMLID_1_" class="st1" d="M82.3,42c1.3,2.3,1.8,5,1.8,8c0,2.3-0.5,4.3-1.5,6s-2,3-3.5,4c-1.3,1.3-2.5,2.3-4,3.3
	c-1.3,0.8-2.5,2-3.5,3.5c-0.8,1.5-1,3.5-1,5.3H56c0-2.3,0-4,0.5-6c0.5-1.8,1-3,1.5-4s1.3-2,2.3-3c1.3-1,2-1.8,2.3-2
	c0.5-0.3,1.5-1,2.8-1.8c2.3-1.5,3.5-3.3,3.5-5c0-1.3-0.5-2.5-1.3-3.5c-1-0.8-2.5-1.3-4.3-1.3c-4,0-6.3,2-6.3,6.5H44
	c0-0.5,0-1.3,0-2.3c0-5.5,1.8-10,5.5-13c3.8-3.3,9-4.8,14.5-4.8c2.8,0,4.8,0.3,7,1c2.5,0.8,4.8,1.8,6.5,3.3
	C79.5,37.5,81,39.5,82.3,42z"/>
<path id="XMLID_2_" class="st1" d="M72,88c0,4.5-3.5,8-8,8s-8-3.5-8-8s3.5-8,8-8S72,83.5,72,88z"/>
</svg>
