<?xml version="1.0" encoding="utf-8"?>
<!-- Generator: Adobe Illustrator 19.0.0, SVG Export Plug-In . SVG Version: 6.00 Build 0)  -->
<svg version="1.1" id="Layer_1" xmlns="http://www.w3.org/2000/svg" xmlns:xlink="http://www.w3.org/1999/xlink" x="0px" y="0px"
	 viewBox="0 0 128 128" style="enable-background:new 0 0 128 128;" xml:space="preserve">
<style type="text/css">
	.st0{fill:#FFFFFF;}
	.st1{fill:#35BFC1;}
</style>
<path id="XMLID_2_" class="st0" d="M125.8,31.7c1.6,1.7,2.8,3.5,1.5,5.8c-2.1,3.5-5.3,6.1-8.3,8.8c-0.9,0.8-3-3.1-4.1-3.8
	C108.3,34.4,100,31,90,31c-2.5,0.1-5,0.8-6.7,1.6c-11.3,3-18.4,10.2-21.8,21.3c-0.8,2.3-1.4,4.6-1.2,7.1c-0.9,1.3,0.6,3.2-1.7,4.2
	C48.6,69.5,48,77.5,48,87c0,2,0,4.8,0,7c0,4.8,0,9.3,0,14c0,2,0,4,0,6c0.1,4.8-2.2,6.7-6.6,7.4c-11.5,2-22.9,4.3-34.3,6.3
	c-4.5,0.8-7.7-2.5-6.8-7C2.5,108.8,4.9,97,7.1,85c0.4-2,1.6-3.3,2.9-4.6c25.6-25.7,51.1-51.3,76.7-77c4.5-4.5,6.4-4.4,11,0
	C100.3,6.1,123.5,29.2,125.8,31.7z"/>
<path id="XMLID_1_" class="st1" d="M82,76H70V64c0-12.2,9.8-22,22-22s22,9.8,22,22v12h-12V64c0-5.5-4.5-10-10-10s-10,4.5-10,10V76z"
	/>
<path id="XMLID_50_" class="st1" d="M121,85H63c-2.2,0-4,1.8-4,4v31c0,4.4,3.6,8,8,8h50c4.4,0,8-3.6,8-8V89
	C125,86.8,123.2,85,121,85z M98,117c0,3.3-2.7,6-6,6s-6-2.7-6-6v-5c0-3.3,2.7-6,6-6s6,2.7,6,6V117z"/>
</svg>
