<?xml version="1.0" encoding="utf-8"?>
<!-- Generator: Adobe Illustrator 19.0.0, SVG Export Plug-In . SVG Version: 6.00 Build 0)  -->
<svg version="1.1" id="Layer_1" xmlns="http://www.w3.org/2000/svg" xmlns:xlink="http://www.w3.org/1999/xlink" x="0px" y="0px"
	 viewBox="0 0 128 128" style="enable-background:new 0 0 128 128;" xml:space="preserve">
<style type="text/css">
	.st0{fill:#34BFC1;}
	.st1{fill:#FFFFFF;}
</style>
<path id="XMLID_3_" class="st0" d="M93.1,38c0,21-13,38-29.1,38S34.9,59,34.9,38S48,0,64,0S93.1,17,93.1,38z"/>
<path id="XMLID_2_" class="st1" d="M58.2,76c0,0-12.4,7.1,0,17.3C58,103.2,52.3,128,46.6,128c-10.9,0-34.9,0-34.9,0
	s-21.8-6.4-5.8-34.7C18.9,80.4,13.5,76,40.8,76C56,76,58.2,76,58.2,76z M69.8,76c0,0,12.4,7.1,0,17.3c0.2,9.9,5.9,34.7,11.6,34.7
	c10.9,0,34.9,0,34.9,0s21.8-6.4,5.8-34.7C109,80.4,114.5,76,87.2,76C72,76,69.8,76,69.8,76z"/>
</svg>
