<?xml version="1.0" encoding="utf-8"?>
<!-- Generator: Adobe Illustrator 19.0.0, SVG Export Plug-In . SVG Version: 6.00 Build 0)  -->
<svg version="1.1" id="Layer_1" xmlns="http://www.w3.org/2000/svg" xmlns:xlink="http://www.w3.org/1999/xlink" x="0px" y="0px"
	 viewBox="240 -124 503.7 272" style="enable-background:new 240 -124 503.7 272;" xml:space="preserve">
<style type="text/css">
	.st0{fill:#F9F9F9;}
	.st1{fill:#FFFFFF;}
</style>
<path class="st0" d="M250.1-124h113c4.3,0,8.1,2.7,9.5,6.8l85.5,252c2.2,6.5-2.6,13.2-9.5,13.2H335.7c-4.3,0-8.1-2.7-9.5-6.8
	l-85.7-252C238.4-117.3,243.2-124,250.1-124z"/>
<path class="st1" d="M733.7-124h-114c-4.3,0-8,2.7-9.4,6.7l-19.5,55.9l62.4,168.6c1.6,4.4,7.8,4.4,9.4,0l80.5-217.7
	C745.5-117.1,740.7-124,733.7-124z"/>
<path class="st0" d="M650.6,134.6l-92.2-252c-1.4-3.9-5.2-6.6-9.4-6.6H427.7c-4.3,0-8.1,2.7-9.5,6.7l-16.9,48.9l60,174.7
	c1.5,4.4,7.8,4.5,9.4,0.1l12.8-34.2c1.6-4.3,7.7-4.3,9.4,0l26.1,69.3c1.5,3.9,5.2,6.5,9.4,6.5h112.8
	C648.2,148,653,141.1,650.6,134.6z"/>
</svg>
