<?xml version="1.0" encoding="utf-8"?>
<!-- Generator: Adobe Illustrator 19.0.0, SVG Export Plug-In . SVG Version: 6.00 Build 0)  -->
<svg version="1.1" id="Layer_2" xmlns="http://www.w3.org/2000/svg" xmlns:xlink="http://www.w3.org/1999/xlink" x="0px" y="0px"
	 viewBox="0 0 24 24" style="enable-background:new 0 0 24 24;" xml:space="preserve">
<style type="text/css">
	.st0{fill:#F3F2EF;}
	.st1{fill:#E6E5E3;}
</style>
<path id="XMLID_11_" class="st0" d="M23.1,17.3c1,1,1,2.8,0,3.9l-2.1,2.1c-1,1-2.8,1-3.9,0L0.8,6.8c-1-1-1-2.8,0-3.9l2.2-2.2
	c1-1,2.8-1,3.9,0L23.1,17.3z"/>
<path id="XMLID_12_" class="st1" d="M14.5,8.5l-6,6l8.7,8.6c1,1,2.8,1,3.9,0l2.2-2.2c1-1,1-2.8,0-3.9L14.5,8.5z"/>
<path id="XMLID_10_" class="st0" d="M17.2,0.9c1-1,2.8-1,3.9,0L23.2,3c1,1,1,2.8,0,3.9L6.7,23.2c-1,1-2.8,1-3.9,0l-2.1-2.1
	c-1-1-1-2.8,0-3.9L17.2,0.9z"/>
</svg>
