<?xml version="1.0" encoding="utf-8"?>
<!-- Generator: Adobe Illustrator 19.0.0, SVG Export Plug-In . SVG Version: 6.00 Build 0)  -->
<svg version="1.1" id="Layer_1" xmlns="http://www.w3.org/2000/svg" xmlns:xlink="http://www.w3.org/1999/xlink" x="0px" y="0px"
	 viewBox="0 0 24 24" style="enable-background:new 0 0 24 24;" xml:space="preserve">
<style type="text/css">
	.st0{opacity:5.000000e-002;}
	.st1{fill:#F3F2EF;}
	.st2{fill:#E6E5E3;}
</style>
<path id="XMLID_8_" class="st0" d="M21.6,6.3L8.5,19.8l0,1.5h0.6L23.3,9.8C22.9,8.6,22.3,7.3,21.6,6.3z"/>
<path id="XMLID_6_" class="st1" d="M23.7,5.6L21.1,3c-0.3-0.3-0.9-0.3-1.3,0L8.7,14.5L3.9,9.8c-0.3-0.3-0.9-0.3-1.3,0l-2.3,2.3
	c-0.3,0.3-0.3,0.9,0,1.3L8,21c0.2,0.2,0.5,0.3,0.8,0.3c0.3,0,0.6,0,0.8-0.3L23.7,6.9C24.1,6.5,24.1,6,23.7,5.6z"/>
<path id="XMLID_7_" class="st2" d="M9.5,21L23.7,6.9c0.3-0.3,0.3-0.9,0-1.3l-0.4-0.4L8.7,19.6l-8.1-7.9l-0.3,0.3
	c-0.3,0.3-0.3,0.9,0,1.3L8,21c0.2,0.2,0.5,0.3,0.8,0.3C9,21.3,9.3,21.2,9.5,21z"/>
</svg>
