<?xml version="1.0" standalone="no"?>
<!DOCTYPE svg PUBLIC "-//W3C//DTD SVG 1.1//EN" "http://www.w3.org/Graphics/SVG/1.1/DTD/svg11.dtd" >
<svg xmlns="http://www.w3.org/2000/svg">
<metadata>Generated by IcoMoon</metadata>
<defs>
<font id="WojoIcons" horiz-adv-x="1024">
<font-face units-per-em="1024" ascent="960" descent="-64" />
<missing-glyph horiz-adv-x="1024" />
<glyph unicode="&#x20;" horiz-adv-x="0" d="" />
<glyph unicode="&#xe000;" glyph-name="agenda" d="M832 960h-640c-36 0-64-28-64-64v-128h-32c-18 0-32-14-32-32s14-32 32-32h32v-64h-32c-18 0-32-14-32-32s14-32 32-32h32v-64h-32c-18 0-32-14-32-32s14-32 32-32h32v-64h-32c-18 0-32-14-32-32s14-32 32-32h32v-64h-32c-18 0-32-14-32-32s14-32 32-32h32v-64h-32c-18 0-32-14-32-32s14-32 32-32h32v-64c0-36 28-64 64-64h640c36 0 64 28 64 64v896c0 36-28 64-64 64zM640 0h-448v64h32c18 0 32 14 32 32s-14 32-32 32h-32v64h32c18 0 32 14 32 32s-14 32-32 32h-32v64h32c18 0 32 14 32 32s-14 32-32 32h-32v64h32c18 0 32 14 32 32s-14 32-32 32h-32v64h32c18 0 32 14 32 32s-14 32-32 32h-32v64h32c18 0 32 14 32 32s-14 32-32 32h-32v128h448zM832 0h-128v896h128z" />
<glyph unicode="&#xe001;" glyph-name="aid.kit" d="M946 768h-242v114c0 42-36 78-78 78h-228c-42 0-78-36-78-78v-114h-242c-42 0-78-36-78-78v-612c0-42 36-78 78-78h868c42 0 78 36 78 78v612c0 42-36 78-78 78zM384 896h256v-128h-256zM960 78c0-8-6-14-14-14h-868c-8 0-14 6-14 14v612c0 8 6 14 14 14h868c8 0 14-6 14-14zM576 576h-128v-128h-128v-128h128v-128h128v128h128v128h-128z" />
<glyph unicode="&#xe002;" glyph-name="align.center" d="M768 832c0 36-28 64-64 64h-384c-36 0-64-28-64-64s28-64 64-64h384c36 0 64 28 64 64zM0 576c0-36 28-64 64-64h896c36 0 64 28 64 64s-28 64-64 64h-896c-36 0-64-28-64-64zM256 320c0-36 28-64 64-64h384c36 0 64 28 64 64s-28 64-64 64h-384c-36 0-64-28-64-64zM0 64c0-36 28-64 64-64h896c36 0 64 28 64 64s-28 64-64 64h-896c-36 0-64-28-64-64z" />
<glyph unicode="&#xe003;" glyph-name="align.justify" d="M64 768h896c36 0 64 28 64 64s-28 64-64 64h-896c-36 0-64-28-64-64s28-64 64-64zM960 640h-896c-36 0-64-28-64-64s28-64 64-64h896c36 0 64 28 64 64s-28 64-64 64zM960 384h-896c-36 0-64-28-64-64s28-64 64-64h896c36 0 64 28 64 64s-28 64-64 64zM960 128h-896c-36 0-64-28-64-64s28-64 64-64h896c36 0 64 28 64 64s-28 64-64 64z" />
<glyph unicode="&#xe004;" glyph-name="align.left" d="M64 768h640c36 0 64 28 64 64s-28 64-64 64h-640c-36 0-64-28-64-64s28-64 64-64zM960 640h-896c-36 0-64-28-64-64s28-64 64-64h896c36 0 64 28 64 64s-28 64-64 64zM704 384h-640c-36 0-64-28-64-64s28-64 64-64h640c36 0 64 28 64 64s-28 64-64 64zM960 128h-896c-36 0-64-28-64-64s28-64 64-64h896c36 0 64 28 64 64s-28 64-64 64z" />
<glyph unicode="&#xe005;" glyph-name="align.right" d="M1024 832c0 36-28 64-64 64h-640c-36 0-64-28-64-64s28-64 64-64h640c36 0 64 28 64 64zM0 576c0-36 28-64 64-64h896c36 0 64 28 64 64s-28 64-64 64h-896c-36 0-64-28-64-64zM256 320c0-36 28-64 64-64h640c36 0 64 28 64 64s-28 64-64 64h-640c-36 0-64-28-64-64zM0 64c0-36 28-64 64-64h896c36 0 64 28 64 64s-28 64-64 64h-896c-36 0-64-28-64-64z" />
<glyph unicode="&#xe006;" glyph-name="anchor" d="M928 384h-96c-32 0-32-20-32-32s0-32 32-32h64c-12-188-164-306-352-318v510h96c32 0 32 20 32 32s0 32-32 32h-96v64c74 16 128 82 128 160 0 88-72 160-160 160s-160-72-160-160c0-78 54-144 128-160v-64h-96c-30-2-32-20-32-32s0-32 32-32h96v-510c-188 12-340 130-352 318h64c32 0 32 20 32 32s0 32-32 32h-96c-12 0-32-20-32-32 0-236 212-416 448-416s448 180 448 416c0 12-20 32-32 32zM416 800c0 52 44 96 96 96s96-44 96-96c0-52-44-96-96-96s-96 44-96 96z" />
<glyph unicode="&#xe007;" glyph-name="angle.double.down" d="M914 878l-402-404-402 404c-26 24-66 24-92 0-24-26-24-66 0-92l448-448c12-10 28-18 46-18s34 8 46 18l448 448c24 26 24 66 0 92-26 24-66 24-92 0zM914 558l-402-404-402 404c-26 24-66 24-92 0-24-26-24-66 0-92l448-448c12-10 28-18 46-18s34 8 46 18l448 448c24 26 24 66 0 92-26 24-66 24-92 0z" />
<glyph unicode="&#xe008;" glyph-name="angle.double.left" d="M402 494c-10-12-18-28-18-46s8-34 18-46l448-448c26-24 66-24 92 0 24 26 24 66 0 92l-404 402 404 402c24 26 24 66 0 92-26 24-66 24-92 0zM82 494c-10-12-18-28-18-46s8-34 18-46l448-448c26-24 66-24 92 0 24 26 24 66 0 92l-404 402 404 402c24 26 24 66 0 92-26 24-66 24-92 0z" />
<glyph unicode="&#xe009;" glyph-name="angle.double.right" d="M174 942c-26 24-66 24-92 0-24-26-24-66 0-92l404-402-404-402c-24-26-24-66 0-92 26-24 66-24 92 0l448 448c10 12 18 28 18 46s-8 34-18 46zM494 942c-26 24-66 24-92 0-24-26-24-66 0-92l404-402-404-402c-24-26-24-66 0-92 26-24 66-24 92 0l448 448c10 12 18 28 18 46s-8 34-18 46z" />
<glyph unicode="&#xe00a;" glyph-name="angle.double.up" d="M1006 18c24 26 24 66 0 92l-448 448c-12 10-28 18-46 18s-34-8-46-18l-448-448c-24-26-24-66 0-92 26-24 66-24 92 0l402 404 402-404c26-24 66-24 92 0zM1006 338c24 26 24 66 0 92l-448 448c-12 10-28 18-46 18s-34-8-46-18l-448-448c-24-26-24-66 0-92 26-24 66-24 92 0l402 404 402-404c26-24 66-24 92 0z" />
<glyph unicode="&#xe00b;" glyph-name="angle.down" d="M914 750l-402-404-402 404c-26 24-66 24-92 0-24-26-24-66 0-92l448-448c12-10 28-18 46-18s34 8 46 18l448 448c24 26 24 66 0 92-26 24-66 24-92 0z" />
<glyph unicode="&#xe00c;" glyph-name="angle.left" d="M274 494c-10-12-18-28-18-46s8-34 18-46l448-448c26-24 66-24 92 0 24 26 24 66 0 92l-404 402 404 402c24 26 24 66 0 92-26 24-66 24-92 0z" />
<glyph unicode="&#xe00d;" glyph-name="angle.right" d="M366 942c-26 24-66 24-92 0-24-26-24-66 0-92l404-402-404-402c-24-26-24-66 0-92 26-24 66-24 92 0l448 448c10 12 18 28 18 46s-8 34-18 46z" />
<glyph unicode="&#xe00e;" glyph-name="angle.up" d="M558 750c-12 10-28 18-46 18s-34-8-46-18l-448-448c-24-26-24-66 0-92 26-24 66-24 92 0l402 404 402-404c26-24 66-24 92 0 24 26 24 66 0 92z" />
<glyph unicode="&#xe00f;" glyph-name="antena" d="M1012 194l-348 348 108 110c4 4 10 2 14 2 2 0 4-2 4-2 20 0 36 8 50 22s24 32 24 52c0 20-10 36-24 50s-32 24-52 24c-20 0-36-10-50-24s-22-30-22-50c0-2 2-2 2-4s2-2 2-4l-2-6-112-114-350 350c-16 16-40 16-56 0-108-108-168-252-168-406 0-102 28-204 82-292l6-10-12-4c-64-20-108-78-108-146 0-42 16-80 46-108 28-30 68-46 108-46 68 0 126 44 146 108l4 12 10-6c88-54 192-82 294-82 154 0 296 60 404 168 16 16 16 42 0 58zM154 16c-20 0-38 8-52 22s-22 32-22 52c0 20 8 38 22 52s32 22 52 22c20 0 38-8 52-22s22-32 22-52c0-40-34-74-74-74zM918 160c-88-72-196-110-312-110-132 0-256 50-348 144-94 94-146 218-146 348 0 116 40 224 112 312l6 8 696-696-8-6z" />
<glyph unicode="&#xe010;" glyph-name="app" d="M946 960h-868c-42 0-78-36-78-78v-868c0-42 36-78 78-78h868c42 0 78 36 78 78v868c0 42-36 78-78 78zM960 0h-896v640h896zM960 704h-896v192h896zM128 832h64v-64h-64zM256 832h64v-64h-64zM384 832h64v-64h-64z" />
<glyph unicode="&#xe011;" glyph-name="app.add" d="M896 256h-64v-128h-128v-64h128v-128h64v128h128v64h-128zM960-62c32 6 56 30 62 62h-62zM946 960h-868c-42 0-78-36-78-78v-868c0-42 36-78 78-78h690v64h-704v640h896v-448h64v690c0 42-36 78-78 78zM960 704h-896v192h896zM128 832h64v-64h-64zM256 832h64v-64h-64zM384 832h64v-64h-64z" />
<glyph unicode="&#xe012;" glyph-name="app.remove" d="M704 128h320v-64h-320zM946 960h-868c-42 0-78-36-78-78v-868c0-42 36-78 78-78h868c38 0 70 28 76 64h-958v640h896v-448h64v690c0 42-36 78-78 78zM960 704h-896v192h896zM128 832h64v-64h-64zM256 832h64v-64h-64zM384 832h64v-64h-64z" />
<glyph unicode="&#xe013;" glyph-name="apple" d="M736 768v0c0 0-2 0-2 0s-2 0-2 0c-70 0-136-24-186-66 18 104 116 202 116 204 14 12 14 32 0 44-6 6-14 10-22 10s-16-4-22-10c-6-4-122-122-136-252-52 44-118 70-190 70 0 0-2 0-2 0s-2 0-2 0v0c-160-2-288-132-288-292 0-44 10-84 26-120l118-288c10-24 26-48 46-70 42-40 96-62 152-62 54 0 108 22 150 62 8 8 14 16 20 24 6-8 12-16 20-24 42-40 96-62 150-62 56 0 110 22 152 62 20 22 36 46 46 70v0l118 288c16 36 26 76 26 120 0 160-128 290-288 292zM940 382l-2-2-70-172-48-116c-12-28-32-52-58-70-16-8-32-16-50-20-50-8-100 6-134 42-6 4-10 10-14 16h-2c-24 34-76 34-100 0h-2c-4-6-8-12-14-16-34-36-84-50-134-42-18 4-34 10-50 20-26 18-48 42-58 70l-120 290c-14 30-20 60-20 94 0 124 102 226 226 228 68 0 130-30 172-84v0c26-32 74-32 100 0v0c42 54 104 84 172 84 124-2 226-104 226-228 0-32-6-64-20-94z" />
<glyph unicode="&#xe014;" glyph-name="apps" d="M320 672c0-18-14-32-32-32h-192c-18 0-32 14-32 32v192c0 18 14 32 32 32h192c18 0 32-14 32-32zM320 544c0 18-14 32-32 32h-192c-18 0-32-14-32-32v-192c0-18 14-32 32-32h192c18 0 32 14 32 32zM640 544c0 18-14 32-32 32h-192c-18 0-32-14-32-32v-192c0-18 14-32 32-32h192c18 0 32 14 32 32zM640 224c0 18-14 32-32 32h-192c-18 0-32-14-32-32v-192c0-18 14-32 32-32h192c18 0 32 14 32 32zM960 544c0 18-14 32-32 32h-192c-18 0-32-14-32-32v-192c0-18 14-32 32-32h192c18 0 32 14 32 32zM960 224c0 18-14 32-32 32h-192c-18 0-32-14-32-32v-192c0-18 14-32 32-32h192c18 0 32 14 32 32zM320 224c0 18-14 32-32 32h-192c-18 0-32-14-32-32v-192c0-18 14-32 32-32h192c18 0 32 14 32 32zM640 864c0 18-14 32-32 32h-192c-18 0-32-14-32-32v-192c0-18 14-32 32-32h192c18 0 32 14 32 32zM960 864c0 18-14 32-32 32h-192c-18 0-32-14-32-32v-192c0-18 14-32 32-32h192c18 0 32 14 32 32z" />
<glyph unicode="&#xe015;" glyph-name="apps.alt" d="M128 896c-70 0-128-58-128-128s58-128 128-128c70 0 128 58 128 128s-58 128-128 128zM128 704c-36 0-64 28-64 64s28 64 64 64c36 0 64-28 64-64s-28-64-64-64zM512 896c-70 0-128-58-128-128s58-128 128-128c70 0 128 58 128 128s-58 128-128 128zM512 704c-36 0-64 28-64 64s28 64 64 64c36 0 64-28 64-64s-28-64-64-64zM896 896c-70 0-128-58-128-128s58-128 128-128c70 0 128 58 128 128s-58 128-128 128zM896 704c-36 0-64 28-64 64s28 64 64 64c36 0 64-28 64-64s-28-64-64-64zM128 576c-70 0-128-58-128-128s58-128 128-128c70 0 128 58 128 128s-58 128-128 128zM128 384c-36 0-64 28-64 64s28 64 64 64c36 0 64-28 64-64s-28-64-64-64zM512 576c-70 0-128-58-128-128s58-128 128-128c70 0 128 58 128 128s-58 128-128 128zM512 384c-36 0-64 28-64 64s28 64 64 64c36 0 64-28 64-64s-28-64-64-64zM896 576c-70 0-128-58-128-128s58-128 128-128c70 0 128 58 128 128s-58 128-128 128zM896 384c-36 0-64 28-64 64s28 64 64 64c36 0 64-28 64-64s-28-64-64-64zM128 256c-70 0-128-58-128-128s58-128 128-128c70 0 128 58 128 128s-58 128-128 128zM128 64c-36 0-64 28-64 64s28 64 64 64c36 0 64-28 64-64s-28-64-64-64zM512 256c-70 0-128-58-128-128s58-128 128-128c70 0 128 58 128 128s-58 128-128 128zM512 64c-36 0-64 28-64 64s28 64 64 64c36 0 64-28 64-64s-28-64-64-64zM896 256c-70 0-128-58-128-128s58-128 128-128c70 0 128 58 128 128s-58 128-128 128zM896 64c-36 0-64 28-64 64s28 64 64 64c36 0 64-28 64-64s-28-64-64-64z" />
<glyph unicode="&#xe016;" glyph-name="arrow.backward" d="M64 544c0-10 4-22 12-28l2-2 384-316c6-4 10-6 18-6 18 0 32 14 32 32v160c174-14 320-128 368-290 2-10 6-20 8-30 2-6 2-12 2-18 2-18 6-30 6-46 40 70 64 146 64 232 0 250-202 456-448 472v160c0 18-14 32-32 32-8 0-12-2-18-6l-2-2-384-316c-8-6-12-18-12-28zM144 544l302 254 2 2v-128c0-18 14-32 30-32h2c10 0 22 0 32-2 216-14 382-188 382-404 0-6 0-10 0-16-78 132-218 220-382 230-12 0-22 0-32 0-16 0-32-14-32-32v-128l-2 2z" />
<glyph unicode="&#xe017;" glyph-name="arrow.forward" d="M948 572l-2 2-384 316c-6 4-10 6-18 6-18 0-32-14-32-32v-160c-246-16-448-222-448-472 0-86 24-162 64-232 0 16 4 28 6 46 0 6 0 12 2 18 2 10 6 20 8 30 48 162 194 276 368 290v-160c0-18 14-32 32-32 8 0 12 2 18 6l2 2 384 316c8 6 12 18 12 28s-4 22-12 28zM578 290l-2-2v128c0 18-16 32-32 32-10 0-20 0-32 0-164-10-304-98-382-230 0 6 0 10 0 16 0 216 166 390 382 404 10 2 22 2 32 2h2c16 0 30 14 30 32v128l2-2 302-254z" />
<glyph unicode="&#xe018;" glyph-name="arrows" d="M992 640c-18 0-32 14-32 32v178l-330-328c-6-6-14-10-22-10-18 0-32 14-32 32 0 8 4 16 10 22l328 330h-178c-18 0-32 14-32 32s14 32 32 32h256c18 0 32-14 32-32v-256c0-18-14-32-32-32zM416 512c-8 0-16 4-22 10l-330 328v-178c0-18-14-32-32-32s-32 14-32 32v256c0 18 14 32 32 32h256c18 0 32-14 32-32s-14-32-32-32h-178l328-330c6-6 10-14 10-22 0-18-14-32-32-32zM32 256c18 0 32-14 32-32v-178l330 328c6 6 14 10 22 10 18 0 32-14 32-32 0-8-4-16-10-22l-328-330h178c18 0 32-14 32-32s-14-32-32-32h-256c-18 0-32 14-32 32v256c0 18 14 32 32 32zM608 384c8 0 16-4 22-10l330-328v178c0 18 14 32 32 32s32-14 32-32v-256c0-18-14-32-32-32h-256c-18 0-32 14-32 32s14 32 32 32h178l-328 330c-6 6-10 14-10 22 0 18 14 32 32 32z" />
<glyph unicode="&#xe019;" glyph-name="arrows.horizontal" d="M768 224c0 8 4 16 10 22l136 138h-804l136-138c6-6 10-14 10-22 0-18-14-32-32-32-8 0-16 4-22 10l-190 190c-6 6-12 16-12 24s6 18 12 24l2 2 188 190c6 6 14 8 22 8 18 0 32-14 32-32 0-8-2-16-8-22l-138-138h804l-138 138c-6 6-8 14-8 22 0 18 14 32 32 32 8 0 16-2 22-8l2-2 188-190c6-6 12-16 12-24s-6-18-12-24l-190-190c-4-6-12-10-22-10-18 0-32 14-32 32z" />
<glyph unicode="&#xe01a;" glyph-name="arrows.vertical" d="M768 160c0-8-4-16-10-22l-190-190c-6-6-16-12-24-12s-18 6-24 12l-2 2-190 188c-6 6-8 14-8 22 0 18 14 32 32 32 8 0 16-2 22-8l138-138v804l-138-138c-6-6-14-8-22-8-18 0-32 14-32 32 0 8 2 16 8 22l2 2 190 188c6 6 16 12 24 12s18-6 24-12l190-190c6-4 10-14 10-22 0-18-14-32-32-32-8 0-16 4-22 10l-138 136v-804l138 136c6 6 14 10 22 10 18 0 32-14 32-32z" />
<glyph unicode="&#xe01b;" glyph-name="asterisk" d="M856 256c-12-20-34-32-56-32-10 0-22 4-32 10l-192 106v-212c0-34-28-64-64-64s-64 30-64 64v212l-192-108c-10-6-22-8-32-8-22 0-42 12-54 32-18 30-8 66 22 84l192 108-192 108c-30 18-40 54-22 84s56 42 86 24l192-108v212c0 34 28 64 64 64s64-30 64-64v-212l192 108c30 18 70 6 88-24s6-68-24-84l-190-108 190-106c30-18 42-56 24-86z" />
<glyph unicode="&#xe01c;" glyph-name="backward" d="M960 826c-14 0-28-4-40-14l-406-310c0-2-2-2-2-2v260c0 38-32 64-64 64-14 0-28-6-40-16l-384-310c-32-26-32-74 0-100l384-314c12-10 26-16 40-16 32 0 64 26 64 64v270c0-2 2-2 2-2l406-314c12-10 26-14 40-14 32 0 64 26 64 64v626c0 38-32 64-64 64zM448 500v-368l-384 316 384 312zM960 136v0l-406 314c0 0 0 0 0 0s0 2 0 2l406 310v-626z" />
<glyph unicode="&#xe01d;" glyph-name="badge" d="M750 274c88 70 146 180 146 302 0 212-172 384-384 384-2 0-4 0-6 0-210-4-378-174-378-384 0-122 58-232 146-302l-80-206c-4-10-2-22 4-32 6-8 16-14 26-14 0 0 2 0 4 0l114 6 80-82c6-6 14-10 24-10 2 0 4 0 6 0v0c12 2 20 10 26 22l34 90 36-90c4-12 12-20 24-22v0c2 0 4 0 6 0 10 0 18 4 24 10l80 82 114-6c2 0 2 0 2 0s2 0 2 0c8 0 16 4 22 10 8 6 10 14 10 24 0 6 0 12-4 16l-78 202zM480 152v-2l-46-120-54 56c-8 6-16 10-26 10v0l-78-4 56 144c50-26 104-42 164-44l-16-40zM522 256c-4 0-6 0-10 0-30 0-58 4-86 12-134 38-234 162-234 308 0 174 140 316 312 320 4 0 6 0 8 0s4 0 8 0c172-4 312-146 312-320s-138-314-310-320zM670 96c0 0 0 0 0 0-10 0-18-4-26-10l-54-56-42 110 22 56c44 6 84 20 122 40l56-144-78 4zM512 832c-142 0-256-114-256-256s114-256 256-256c142 0 256 114 256 256s-114 256-256 256zM512 384c-110 0-192 82-192 192s82 192 192 192c110 0 192-82 192-192s-82-192-192-192z" />
<glyph unicode="&#xe01e;" glyph-name="bag" d="M902 632c-4 40-38 72-78 72h-56c0 142-114 256-256 256s-256-114-256-256h-56c-40 0-74-32-78-72l-50-612c-4-44 32-84 78-84h726c44 0 80 40 78 84l-52 612zM320 704c0 106 86 192 192 192s192-86 192-192zM886 4c-2-2-6-4-12-4h-726c-4 0-8 2-10 4s-4 6-4 12l52 612c0 6 6 12 14 12h624c8 0 14-6 14-12l52-612c0-6-2-10-4-12z" />
<glyph unicode="&#xe01f;" glyph-name="bag.add" d="M896 256h-64v-128h-128v-64h128v-128h64v128h128v64h-128zM150 0c-6 0-10 2-12 4s-4 6-4 12l52 612c0 6 6 12 14 12h624c8 0 14-6 14-12l26-308h64l-26 312c-4 40-38 72-78 72h-56c0 142-114 256-256 256s-256-114-256-256h-56c-40 0-74-32-78-72l-50-612c-4-44 32-84 78-84h618v64h-618zM320 704c0 106 86 192 192 192s192-86 192-192z" />
<glyph unicode="&#xe020;" glyph-name="bag.remove" d="M704 128h320v-64h-320zM704 0h-554c-6 0-10 2-12 4s-4 6-4 12l52 612c0 6 6 12 14 12h624c8 0 14-6 14-12l36-436h64l-36 440c-4 40-38 72-78 72h-56c0 142-114 256-256 256s-256-114-256-256h-56c-40 0-74-32-78-72l-50-612c-4-44 32-84 78-84h726c38 0 70 28 76 64h-248zM320 704c0 106 86 192 192 192s192-86 192-192z" />
<glyph unicode="&#xe021;" glyph-name="ban" d="M512 960c-282 0-512-230-512-512s230-512 512-512c282 0 512 230 512 512s-230 512-512 512zM512 0c-248 0-448 200-448 448s200 448 448 448c248 0 448-200 448-448s-200-448-448-448zM694 720l-454-454c-24-24-24-64 0-90v0c26-24 66-24 90 0l454 454c24 24 24 64 0 90v0c-26 24-66 24-90 0z" />
<glyph unicode="&#xe022;" glyph-name="bar.chart" d="M1024-32c0-18-14-32-32-32h-960c-18 0-32 14-32 32v960c0 18 14 32 32 32s32-14 32-32v-160h32c18 0 32-14 32-32s-14-32-32-32h-32v-128h32c18 0 32-14 32-32s-14-32-32-32h-32v-128h32c18 0 32-14 32-32s-14-32-32-32h-32v-128h32c18 0 32-14 32-32s-14-32-32-32h-32v-128h928c18 0 32-14 32-32zM256 64c36 0 64 28 64 64v192c0 36-28 64-64 64s-64-28-64-64v-192c0-36 28-64 64-64zM448 64c36 0 64 28 64 64v384c0 36-28 64-64 64s-64-28-64-64v-384c0-36 28-64 64-64zM640 64c36 0 64 28 64 64v512c0 36-28 64-64 64s-64-28-64-64v-512c0-36 28-64 64-64zM832 64c36 0 64 28 64 64v640c0 36-28 64-64 64s-64-28-64-64v-640c0-36 28-64 64-64z" />
<glyph unicode="&#xe023;" glyph-name="bar.chart.alt" d="M192 240c0 8 8 16 16 16h96c8 0 16-8 16-16v-96c0-8-8-16-16-16h-96c-8 0-16 8-16 16zM320 432c0 8-8 16-16 16h-96c-8 0-16-8-16-16v-96c0-8 8-16 16-16h96c8 0 16 8 16 16zM480 240c0 8-8 16-16 16h-96c-8 0-16-8-16-16v-96c0-8 8-16 16-16h96c8 0 16 8 16 16zM480 432c0 8-8 16-16 16h-96c-8 0-16-8-16-16v-96c0-8 8-16 16-16h96c8 0 16 8 16 16zM482 624c0 8-8 16-16 16h-98c-8 0-16-8-16-16v-96c0-8 8-16 16-16h98c8 0 16 8 16 16zM642 240c0 8-8 16-16 16h-98c-8 0-16-8-16-16v-96c0-8 8-16 16-16h98c8 0 16 8 16 16zM642 432c0 8-8 16-16 16h-98c-8 0-16-8-16-16v-96c0-8 8-16 16-16h98c8 0 16 8 16 16zM640 624c0 8-8 16-16 16h-96c-8 0-16-8-16-16v-96c0-8 8-16 16-16h96c8 0 16 8 16 16zM802 240c0 8-8 16-16 16h-98c-8 0-16-8-16-16v-96c0-8 8-16 16-16h98c8 0 16 8 16 16zM640 816c0 8-8 16-16 16h-96c-8 0-16-8-16-16v-96c0-8 8-16 16-16h96c8 0 16 8 16 16zM960 240c0 8-8 16-16 16h-96c-8 0-16-8-16-16v-96c0-8 8-16 16-16h96c8 0 16 8 16 16zM960 432c0 8-8 16-16 16h-96c-8 0-16-8-16-16v-96c0-8 8-16 16-16h96c8 0 16 8 16 16zM960 64h-832v832c0 36-28 64-64 64s-64-28-64-64v-896c0-16 6-32 16-42 0 0 0 0 0-2 2 0 2 0 2 0s0 0 0-2c2 0 2 0 2 0s0 0 0-2c2 0 2 0 2 0 10-10 26-16 42-16h896c36 0 64 28 64 64s-28 64-64 64z" />
<glyph unicode="&#xe024;" glyph-name="basket" d="M224 512v0c-18 0-32-14-32-32v-384c0-18 14-32 32-32v0c18 0 32 14 32 32v384c0 18-14 32-32 32zM352 512v0c-18 0-32-14-32-32v-384c0-18 14-32 32-32v0c18 0 32 14 32 32v384c0 18-14 32-32 32zM480 512v0c-18 0-32-14-32-32v-384c0-18 14-32 32-32v0c18 0 32 14 32 32v384c0 18-14 32-32 32zM608 512v0c-18 0-32-14-32-32v-384c0-18 14-32 32-32v0c18 0 32 14 32 32v384c0 18-14 32-32 32zM736 512v0c-18 0-32-14-32-32v-384c0-18 14-32 32-32v0c18 0 32 14 32 32v384c0 18-14 32-32 32zM882 640h-110l-78 156c6 10 10 24 10 36 0 36-28 64-64 64s-64-28-64-64c0-34 26-62 60-64l64-128h-440l64 128c34 2 60 30 60 64 0 36-28 64-64 64s-64-28-64-64c0-14 4-26 10-36l-78-156h-110c-42 0-78-36-78-78v-114h64v-434c0-42 36-78 78-78h676c42 0 78 36 78 78v434h64v114c0 42-36 78-78 78zM662 810c-6-6-14-10-22-10s-16 4-22 10c-6 6-10 14-10 22s4 16 10 22c6 6 14 10 22 10s16-4 22-10c6-6 10-14 10-22s-4-16-10-22zM298 854c6 6 14 10 22 10s16-4 22-10c6-6 10-14 10-22s-4-16-10-22c-6-6-14-10-22-10s-16 4-22 10c-6 6-10 14-10 22s4 16 10 22zM896 512h-64v-498c0-8-6-14-14-14h-676c-8 0-14 6-14 14v498h-64v50c0 8 6 14 14 14h804c8 0 14-6 14-14z" />
<glyph unicode="&#xe025;" glyph-name="basket.add" d="M224 512c-18 0-32-14-32-32v-384c0-18 14-32 32-32v0c18 0 32 14 32 32v384c0 18-14 32-32 32zM352 512c-18 0-32-14-32-32v-384c0-18 14-32 32-32v0c18 0 32 14 32 32v384c0 18-14 32-32 32zM480 512c-18 0-32-14-32-32v-384c0-18 14-32 32-32v0c18 0 32 14 32 32v384c0 18-14 32-32 32zM608 512c-18 0-32-14-32-32v-384c0-18 14-32 32-32v0c18 0 32 14 32 32v384c0 18-14 32-32 32zM896 256h-64v-128h-128v-64h128v-128h64v128h128v64h-128zM736 512c-18 0-32-14-32-32v-288h64v288c0 18-14 32-32 32zM142 0c-8 0-14 6-14 14v498h-64v50c0 8 6 14 14 14h804c8 0 14-6 14-14v-50h-64v-192h64v128h64v114c0 42-36 78-78 78h-110l-78 156c6 10 10 24 10 36 0 36-28 64-64 64s-64-28-64-64c0-34 26-62 60-64l64-128h-440l64 128c34 2 60 30 60 64 0 36-28 64-64 64s-64-28-64-64c0-14 4-26 10-36l-78-156h-110c-42 0-78-36-78-78v-114h64v-434c0-42 36-78 78-78h626v64zM662 810c-6-6-14-10-22-10s-16 4-22 10c-6 6-10 14-10 22s4 16 10 22c6 6 14 10 22 10s16-4 22-10c6-6 10-14 10-22s-4-16-10-22zM298 854c6 6 14 10 22 10s16-4 22-10c6-6 10-14 10-22s-4-16-10-22c-6-6-14-10-22-10s-16 4-22 10c-6 6-10 14-10 22s4 16 10 22z" />
<glyph unicode="&#xe026;" glyph-name="basket.remove" d="M224 512c-18 0-32-14-32-32v-384c0-18 14-32 32-32v0c18 0 32 14 32 32v384c0 18-14 32-32 32zM352 512c-18 0-32-14-32-32v-384c0-18 14-32 32-32v0c18 0 32 14 32 32v384c0 18-14 32-32 32zM480 512c-18 0-32-14-32-32v-384c0-18 14-32 32-32v0c18 0 32 14 32 32v384c0 18-14 32-32 32zM608 512c-18 0-32-14-32-32v-384c0-18 14-32 32-32v0c18 0 32 14 32 32v384c0 18-14 32-32 32zM704 128h320v-64h-320zM704 0h-562c-8 0-14 6-14 14v498h-64v50c0 8 6 14 14 14h804c8 0 14-6 14-14v-50h-64v-320h64v256h64v114c0 42-36 78-78 78h-110l-78 156c6 10 10 24 10 36 0 36-28 64-64 64s-64-28-64-64c0-34 26-62 60-64l64-128h-440l64 128c34 2 60 30 60 64 0 36-28 64-64 64s-64-28-64-64c0-14 4-26 10-36l-78-156h-110c-42 0-78-36-78-78v-114h64v-434c0-42 36-78 78-78h676c38 0 70 28 76 64zM662 810c-6-6-14-10-22-10s-16 4-22 10c-6 6-10 14-10 22s4 16 10 22c6 6 14 10 22 10s16-4 22-10c6-6 10-14 10-22s-4-16-10-22zM298 854c6 6 14 10 22 10s16-4 22-10c6-6 10-14 10-22s-4-16-10-22c-6-6-14-10-22-10s-16 4-22 10c-6 6-10 14-10 22s4 16 10 22zM736 512c-18 0-32-14-32-32v-288h64v288c0 18-14 32-32 32z" />
<glyph unicode="&#xe027;" glyph-name="basketball" d="M970 676c0 0 0 0 0 0-4 8-8 18-14 26 0 2-2 4-2 4-2 4-6 8-8 14 0 0 0 0 0 0-6 10-12 18-18 26 0 0 0 2-2 2-2 4-6 8-8 12 0 0-2 2-2 2-6 8-12 16-20 24 0 0 0 0 0 0s0 0 0 0 0 0 0 0c-22 24-46 46-70 66 0 0-2 2-2 2-4 2-8 6-12 8 0 2-2 2-2 2-8 6-16 12-26 18 0 0 0 0 0 0-6 2-10 6-14 8 0 0-2 2-4 2-74 44-162 68-254 68-282 0-510-226-512-508 0-2 0-2 0-4 0-82 20-158 54-228 0 0 0 0 0 0s0 0 0 0c4-8 8-18 14-26 0-2 2-4 2-4 2-4 6-10 8-14 0 0 0 0 0 0 6-10 12-18 18-26 0 0 0-2 2-2 2-4 6-8 8-12 0 0 2-2 2-2 6-8 12-16 20-24 0 0 0 0 0 0s0 0 0 0 0 0 0 0c22-24 46-48 70-66 2-2 2-2 2-2 4-2 8-6 12-10 0 0 2 0 2 0 8-6 18-12 26-18 0 0 0 0 2 0 4-4 8-6 12-8 2 0 2-2 4-2 74-44 162-68 254-68 282 0 510 226 512 508 0 0 0 2 0 4 0 82-18 158-52 228 0 0 0 0 0 0zM806 786l-294-292-110 108c68 80 110 182 110 294 112 0 214-42 294-110zM448 892c-2-94-36-178-90-244l-140 138c64 56 144 92 230 106zM174 742l138-140c-66-54-150-88-244-90 14 86 50 166 106 230zM174 154c-68 80-110 182-110 294 112 0 214 42 294 110l108-110-292-294zM218 110l294 292 110-108c-68-80-110-182-110-294-112 0-214 42-294 110zM576 4c2 94 36 178 90 244l140-138c-64-56-144-92-230-106zM850 154l-138 140c66 54 150 88 244 90-14-86-50-166-106-230zM666 338l-108 110 292 294c68-80 110-182 110-294-112 0-214-42-294-110z" />
<glyph unicode="&#xe028;" glyph-name="batery20" d="M960 576h-64v128c0 36-28 64-64 64h-704c-36 0-64-28-64-64v-512c0-36 28-64 64-64h704c36 0 64 28 64 64v128h64c36 0 64 28 64 64v128c0 36-28 64-64 64zM832 192h-704v512h704zM192 640h64v-384h-64z" />
<glyph unicode="&#xe029;" glyph-name="batery40" d="M960 576h-64v128c0 36-28 64-64 64h-704c-36 0-64-28-64-64v-512c0-36 28-64 64-64h704c36 0 64 28 64 64v128h64c36 0 64 28 64 64v128c0 36-28 64-64 64zM832 192h-704v512h704zM320 640h64v-384h-64zM192 640h64v-384h-64z" />
<glyph unicode="&#xe02a;" glyph-name="batery60" d="M960 576h-64v128c0 36-28 64-64 64h-704c-36 0-64-28-64-64v-512c0-36 28-64 64-64h704c36 0 64 28 64 64v128h64c36 0 64 28 64 64v128c0 36-28 64-64 64zM832 192h-704v512h704zM320 640h64v-384h-64zM192 640h64v-384h-64zM448 640h64v-384h-64z" />
<glyph unicode="&#xe02b;" glyph-name="batery80" d="M960 576h-64v128c0 36-28 64-64 64h-704c-36 0-64-28-64-64v-512c0-36 28-64 64-64h704c36 0 64 28 64 64v128h64c36 0 64 28 64 64v128c0 36-28 64-64 64zM832 192h-704v512h704zM320 640h64v-384h-64zM192 640h64v-384h-64zM448 640h64v-384h-64zM576 640h64v-384h-64z" />
<glyph unicode="&#xe02c;" glyph-name="batery.empty" d="M960 576h-64v128c0 36-28 64-64 64h-704c-36 0-64-28-64-64v-512c0-36 28-64 64-64h704c36 0 64 28 64 64v128h64c36 0 64 28 64 64v128c0 36-28 64-64 64zM832 192h-704v512h704z" />
<glyph unicode="&#xe02d;" glyph-name="batery.full" d="M960 576h-64v128c0 36-28 64-64 64h-704c-36 0-64-28-64-64v-512c0-36 28-64 64-64h704c36 0 64 28 64 64v128h64c36 0 64 28 64 64v128c0 36-28 64-64 64zM832 192h-704v512h704zM320 640h64v-384h-64zM192 640h64v-384h-64zM448 640h64v-384h-64zM576 640h64v-384h-64zM704 640h64v-384h-64z" />
<glyph unicode="&#xe02e;" glyph-name="bell" d="M832 512c0 132-80 244-192 294v76c0 42-36 78-78 78h-100c-42 0-78-36-78-78v-76c-114-50-192-162-192-294v-320l-128-128h320c0-70 58-128 128-128s128 58 128 128h320l-128 128zM448 896h128v-70c-20 4-42 6-64 6s-44-2-64-6zM512 0c-36 0-64 28-64 64h128c0-36-28-64-64-64zM640 128h-422l38 38v346c0 142 114 256 256 256s256-114 256-256v-346l38-38z" />
<glyph unicode="&#xe02f;" glyph-name="binoculars" d="M768 960c-106 0-192-86-192-192h-128c0 106-86 192-192 192s-192-86-192-192v-640c0-106 86-192 192-192s192 86 192 192v320h128v-320c0-106 86-192 192-192s192 86 192 192v640c0 106-86 192-192 192zM256 0c-70 0-128 58-128 128s58 128 128 128c70 0 128-58 128-128s-58-128-128-128zM384 512v-242c-34 32-78 50-128 50s-94-18-128-50v498c0 70 58 128 128 128s128-58 128-128zM576 512h-128v192h128zM768 0c-70 0-128 58-128 128s58 128 128 128c70 0 128-58 128-128s-58-128-128-128zM896 270c-34 32-78 50-128 50s-94-18-128-50v498c0 70 58 128 128 128s128-58 128-128z" />
<glyph unicode="&#xe030;" glyph-name="blackboard.graph" d="M928 256c18 0 32 14 32 32v576c0 18-14 32-32 32h-384v32c0 18-14 32-32 32s-32-14-32-32v-32h-384c-18 0-32-14-32-32v-576c0-18 14-32 32-32h384v-162l-102-104c-14-12-14-32 0-44 12-14 32-14 44 0l58 56v-34c0-18 14-32 32-32s32 14 32 32v34l58-56c6-6 14-10 22-10s16 4 22 10c14 12 14 32 0 44l-102 104v162zM128 832h768v-512h-768zM736 576c0-18 14-32 32-32s32 14 32 32v160c0 2 0 4 0 6s-2 2-2 4v2c0 2-2 2-2 4 0 0 0 0-2 2-2 4-4 6-8 8-2 2-2 2-2 2-2 0-2 2-4 2h-2c-2 0-2 2-4 2s-4 0-6 0h-160c-18 0-32-14-32-32s14-32 32-32h82l-210-210-74 72c-12 14-32 14-44 0l-128-128c-14-12-14-32 0-44 6-6 14-10 22-10s16 4 22 10l106 104 74-72c12-14 32-14 44 0l234 232v-82z" />
<glyph unicode="&#xe031;" glyph-name="bluetooth" d="M590 448l228 222c6 6 14 12 14 18 0 8-6 12-12 18l-250 244c-6 6-18 10-26 10-4 0-8 0-12-2-12-6-20-18-20-30v-404l-202 196c-6 4-14 8-22 8s-16-4-22-10c-6-6-10-12-10-20 0-10 6-18 12-24l234-226-236-230c-6-6-10-16-10-24s4-16 10-20c6-6 14-10 22-10s16 4 22 10l202 198v-404c0-12 8-24 20-30h2c4-2 8-2 12-2 8 0 16 4 22 10l250 242c6 6 14 14 14 20s-8 12-14 18l-228 222zM576 854l170-166-170-164zM576 42v330l170-164z" />
<glyph unicode="&#xe032;" glyph-name="bluetooth.connected" d="M590 448l228 222c6 6 14 12 14 18 0 8-6 12-12 18l-250 244c-6 6-18 10-26 10-4 0-8 0-12-2-12-6-20-18-20-30v-404l-202 196c-6 4-14 8-22 8s-16-4-22-10c-6-6-10-12-10-20 0-10 6-18 12-24l234-226-236-230c-6-6-10-16-10-24s4-16 10-20c6-6 14-10 22-10s16 4 22 10l202 198v-404c0-12 8-24 20-30h2c4-2 8-2 12-2 8 0 16 4 22 10l250 242c6 6 14 14 14 20s-8 12-14 18l-228 222zM576 854l170-166-170-164zM576 42v330l170-164zM896 448c0-36-28-64-64-64s-64 28-64 64c0 36 28 64 64 64s64-28 64-64zM320 448c0-36-28-64-64-64s-64 28-64 64c0 36 28 64 64 64s64-28 64-64z" />
<glyph unicode="&#xe033;" glyph-name="bolt" d="M512 960l-320-640h320v-384l320 640h-320zM728 512l-152-304v176h-280l152 306v-178z" />
<glyph unicode="&#xe034;" glyph-name="book" d="M960 882v14h-2c2-4 2-10 2-14zM882 960h-626c-106 0-192-86-192-192v-640c0-106 86-192 192-192h626c42 0 78 36 78 78v676c0 42-36 78-78 78h-630c-36 0-66 30-62 68 2 34 30 60 66 60h702c-6 36-38 64-76 64zM252 704h630c8 0 14-6 14-14v-676c0-8-6-14-14-14h-626c-70 0-128 58-128 128v640c0 10 0 18 2 26 6-18 16-36 30-50 24-26 58-40 92-40z" />
<glyph unicode="&#xe035;" glyph-name="bookmark" d="M832 960h-640c-36 0-64-28-64-64v-870c0-38 32-64 64-64 16 0 32 6 46 20l228 228c14 14 30 20 46 20s32-6 46-20l228-228c14-14 30-20 46-20 32 0 64 26 64 64v870c0 36-28 64-64 64zM832 78c0-18-22-28-36-16l-192 192c-22 22-52 38-84 40-38 2-72-12-98-38l-194-194c-14-12-36-4-36 16v562h640v-562zM832 704h-640v192h640z" />
<glyph unicode="&#xe036;" glyph-name="bottle" d="M640 512v370c0 38-28 72-64 78h-128c-36-6-64-40-64-78v-370c-36 0-64-28-64-64v-448c0-36 28-64 64-64h256c36 0 64 28 64 64v448c0 36-28 64-64 64zM448 882c0 8 6 14 14 14h100c8 0 14-6 14-14v-50h-128v50zM576 768v-256h-128v256zM640 0h-256v448h256z" />
<glyph unicode="&#xe037;" glyph-name="briefcase" d="M946 768h-178v114c0 42-36 78-78 78h-356c-42 0-78-36-78-78v-114h-178c-42 0-78-36-78-78v-690c0-36 28-64 64-64h896c36 0 64 28 64 64v690c0 42-36 78-78 78zM320 896h384v-128h-384zM960 0h-896v384h320v-50c0-42 36-78 78-78h100c42 0 78 36 78 78v50h320zM448 320v64h128v-64zM960 448h-896v242c0 8 6 14 14 14h868c8 0 14-6 14-14z" />
<glyph unicode="&#xe038;" glyph-name="briefcase.alt" d="M320 704h-64v114c0 42 36 78 78 78h356c42 0 78-36 78-78v-114h-64v128h-384v-128zM1024 562v-562c0-36-28-64-64-64h-896c-36 0-64 28-64 64v562c0 42 36 78 78 78h868c42 0 78-36 78-78zM960 562c0 8-6 14-14 14h-868c-8 0-14-6-14-14v-562h896zM832 288c0 18-14 32-32 32h-576c-18 0-32-14-32-32s14-32 32-32h576c18 0 32 14 32 32zM832 416c0 18-14 32-32 32h-576c-18 0-32-14-32-32s14-32 32-32h576c18 0 32 14 32 32zM832 160c0 18-14 32-32 32h-576c-18 0-32-14-32-32s14-32 32-32h576c18 0 32 14 32 32z" />
<glyph unicode="&#xe039;" glyph-name="brightness" d="M512 768c-176 0-320-144-320-320s144-320 320-320c176 0 320 144 320 320s-144 320-320 320zM512 192c-142 0-256 114-256 256s114 256 256 256c142 0 256-114 256-256s-114-256-256-256zM576 896c0-36-28-64-64-64s-64 28-64 64c0 36 28 64 64 64s64-28 64-64zM576 0c0-36-28-64-64-64s-64 28-64 64c0 36 28 64 64 64s64-28 64-64zM1024 448c0-36-28-64-64-64s-64 28-64 64c0 36 28 64 64 64s64-28 64-64zM128 448c0-36-28-64-64-64s-64 28-64 64c0 36 28 64 64 64s64-28 64-64zM260 764c0-34-30-64-64-64-36 0-64 30-64 64 0 36 28 64 64 64 34 0 64-28 64-64zM892 132c0-36-28-64-64-64-34 0-64 28-64 64 0 34 30 64 64 64 36 0 64-30 64-64zM892 764c0-34-28-64-64-64-34 0-64 30-64 64 0 36 30 64 64 64 36 0 64-28 64-64zM260 132c0-36-30-64-64-64-36 0-64 28-64 64 0 34 28 64 64 64 34 0 64-30 64-64z" />
<glyph unicode="&#xe03a;" glyph-name="brush" d="M78 194c-42-42-70-190-76-220-2-10 0-20 8-28 6-6 14-10 22-10 2 0 4 0 6 0 30 6 178 36 220 78 24 24 38 56 38 90s-14 66-38 90c-48 48-132 48-180 0zM214 58c-16-14-76-34-140-48 16 62 34 124 50 140 12 12 28 18 44 18 18 0 34-8 46-20s18-26 18-44c0-18-6-34-18-46zM1004 942c-12 12-28 18-44 18v0c-18 0-34-6-44-18l-680-634c0 0 0 0 0 0s0 0 0 0c-2-2-2-4-4-6 0-2-2-2-2-4-2-2-2-4-2-6s-2-4-2-6c0-2 2-4 2-6s0-4 0-6c2-2 2-4 4-6s2-4 4-4c0 0 0 0 0-2 0 0 0 0 0 0 2-2 4-2 4-4 2 0 4-2 6-2 2-2 4-2 6-2s4-2 6-2c2 0 4 2 6 2s4 0 6 2c2 0 4 2 6 2 2 2 2 2 4 4h2c12 12 32 12 44 0s12-32 0-44v-2c-2-2-2-4-4-4 0-2-2-4-2-6-2-2-2-4-2-6s-2-4-2-6c2-2 2-4 2-6s0-4 2-6c0-2 2-4 2-6 2 0 2-2 4-4 0 0 0 0 0 0s0 0 2 0c0-2 4-4 6-6 0 0 2 0 4-2 2 0 6-2 10-2 6 0 10 2 14 4 0 0 2 0 2 2 2 0 6 2 8 4 0 0 0 0 0 0s0 0 0 0l632 678c24 24 24 66 0 92zM388 284c-4 8-10 16-16 24-8 6-16 12-24 16l610 570z" />
<glyph unicode="&#xe03b;" glyph-name="bubble" d="M512 832c248 0 448-144 448-320s-200-320-448-320h-26c-18 0-30 0-48 2l-36 6-22-28c-10-12-64-58-124-86 12 32 22 68 22 102v46l-34 18c-114 58-180 154-180 260 0 176 200 320 448 320zM510 896c-282 0-510-172-510-384 0-132 78-246 214-316 0 0 0-2 0-2 0-58-34-122-52-154-2-4-2-8-2-12 0-16 14-28 30-28 2 0 8 0 8 0 100 16 208 106 230 132 22-4 40-4 58-4 8 0 16 0 26 0 282 0 512 172 512 384s-228 384-510 384h-4z" />
<glyph unicode="&#xe03c;" glyph-name="bubbles" d="M426 258c230 0 408 130 406 326 0 174-186 312-416 312s-416-140-416-312c0-108 52-222 164-278 0-2 0-2 0-2 0-48-40-112-56-138v0c0-4-2-6-2-10 0-14 12-22 24-22 2 0 4 0 6 0 0 0 0 0 0 0 82 14 202 104 220 126 18-2 30-2 46-2 6 0 14 0 22 0h2zM290 292c-10-10-50-46-86-68 22 62 20 82 20 82l4 38-36 18c-88 46-128 140-128 222 0 138 158 248 354 248s350-110 350-248c0-152-144-264-340-264 0 0-32 0-62 4l-36 2-40-34zM1024 326c0 86-34 152-118 202-2-24-8-48-16-68 54-38 70-78 70-134 0-68-32-118-106-156l-32-16c0 0 2-82 8-104-62 46-84 84-84 84l-34-4c-14-2-50-2-50-2-86 0-152 20-206 64-14 0-80 0-92 0 64-78 168-128 298-128 6 0 44 0 60 2 16-18 102-102 172-114 0 2 0 2 0 2 2 0 4-2 6-2 12 0 20 8 20 20 0 2 0 6-2 8-14 24-34 92-34 132 0 0 0 2 0 2 96 48 140 118 140 212v0z" />
<glyph unicode="&#xe03d;" glyph-name="building" d="M946 768h-370v114c0 42-36 78-78 78h-420c-42 0-78-36-78-78v-868c0-42 36-78 78-78h868c42 0 78 36 78 78v676c0 42-36 78-78 78zM960 14c0-8-6-14-14-14h-868c-8 0-14 6-14 14v868c0 8 6 14 14 14h420c8 0 14-6 14-14v-178h434c8 0 14-6 14-14zM128 448h64v-128h-64zM128 640h64v-128h-64zM128 832h64v-128h-64zM256 448h64v-128h-64zM256 640h64v-128h-64zM256 832h64v-128h-64zM384 448h64v-128h-64zM384 640h64v-128h-64zM384 832h64v-128h-64zM576 448h64v-128h-64zM576 640h64v-128h-64zM704 448h64v-128h-64zM704 640h64v-128h-64zM832 448h64v-128h-64zM832 640h64v-128h-64z" />
<glyph unicode="&#xe03e;" glyph-name="burger" d="M960 430v18c0 212-200 384-448 384s-448-172-448-384v-18c-38-22-64-62-64-110s26-88 64-110v-132c0-42 36-78 78-78h740c42 0 78 36 78 78v132c38 22 64 62 64 110s-26 88-64 110zM512 768c212 0 384-144 384-320h-768c0 176 172 320 384 320zM896 78c0-8-6-14-14-14h-740c-8 0-14 6-14 14v114h768zM896 256h-768c-36 0-64 28-64 64s28 64 64 64h768c36 0 64-28 64-64s-28-64-64-64zM320 544c0-18-14-32-32-32s-32 14-32 32c0 18 14 32 32 32s32-14 32-32zM448 672c0-18-14-32-32-32s-32 14-32 32c0 18 14 32 32 32s32-14 32-32zM640 672c0-18-14-32-32-32s-32 14-32 32c0 18 14 32 32 32s32-14 32-32zM768 544c0-18-14-32-32-32s-32 14-32 32c0 18 14 32 32 32s32-14 32-32z" />
<glyph unicode="&#xe03f;" glyph-name="bus" d="M960 640v192c0 70-58 128-128 128h-640c-70 0-128-58-128-128v-192c-36 0-64-28-64-64v-64c0-36 28-64 64-64v-256c0-48 26-88 64-110v-82c0-36 28-64 64-64h64c36 0 64 28 64 64v64h384v-64c0-36 28-64 64-64h64c36 0 64 28 64 64v82c38 22 64 62 64 110v256c36 0 64 28 64 64v64c0 36-28 64-64 64zM128 640v192c0 36 28 64 64 64h640c36 0 64-28 64-64v-384h-768zM256 0h-64v64h64zM832 0h-64v64h64zM896 192c0-36-28-64-64-64h-640c-36 0-64 28-64 64v192h768zM320 320h-64c-36 0-64-28-64-64v0c0-36 28-64 64-64h64c36 0 64 28 64 64v0c0 36-28 64-64 64zM768 320h-64c-36 0-64-28-64-64v0c0-36 28-64 64-64h64c36 0 64 28 64 64v0c0 36-28 64-64 64z" />
<glyph unicode="&#xe040;" glyph-name="businessman" d="M640 512h-256c-106 0-192-86-192-192v-320c0-38 26-64 64-64h512c18 0 34 6 48 20 14 12 16 24 16 44v320c0 106-86 192-192 192zM768-2c0 0 0 0 0 0v0c0 2 0 2 0 2h-512c-4 0 0 0 0 4v316c0 70 58 128 128 128h64l40-38-50-296 74-82 74 82-50 296 40 38h64c70 0 128-58 128-128v-322c0 0 0 0 0 0 4 0 2 0 0 0zM512 960c-106 0-192-86-192-192s86-192 192-192c106 0 192 86 192 192s-86 192-192 192zM512 640c-70 0-128 58-128 128s58 128 128 128c70 0 128-58 128-128s-58-128-128-128z" />
<glyph unicode="&#xe041;" glyph-name="cake" d="M960 64v512c0 36-28 64-64 64h-64v160c0 18-14 32-32 32s-32-14-32-32v-160h-128v160c0 18-14 32-32 32s-32-14-32-32v-160h-128v160c0 18-14 32-32 32s-32-14-32-32v-160h-128v160c0 18-14 32-32 32s-32-14-32-32v-160h-64c-36 0-64-28-64-64v-512c-36 0-64-28-64-64v0c0-36 28-64 64-64h896c36 0 64 28 64 64v0c0 36-28 64-64 64zM128 576h768v-128h-768zM128 384h768v-128h-768zM896 0v64h-768v128h768v-192zM256 928c0-18-14-32-32-32s-32 14-32 32c0 18 14 32 32 32s32-14 32-32zM448 928c0-18-14-32-32-32s-32 14-32 32c0 18 14 32 32 32s32-14 32-32zM640 928c0-18-14-32-32-32s-32 14-32 32c0 18 14 32 32 32s32-14 32-32zM832 928c0-18-14-32-32-32s-32 14-32 32c0 18 14 32 32 32s32-14 32-32z" />
<glyph unicode="&#xe042;" glyph-name="cake.alt" d="M992 256h-32v256c0 86-42 128-128 128h-32v96c0 18-14 32-32 32s-32-14-32-32v-96h-192v96c0 18-14 32-32 32s-32-14-32-32v-96h-192v96c0 18-14 32-32 32s-32-14-32-32v-96h-32c-86 0-128-42-128-128v-256c-12 0-22 0-32 0-16-2-32-16-32-32 0-18 14-32 32-32h448v-128h-128c-18 0-32-14-32-32s14-32 32-32h320c18 0 32 14 32 32s-14 32-32 32h-128v128h448c18 0 32 14 32 32 0 16-16 30-32 32zM896 256h-768v256c0 52 12 64 64 64h640c52 0 64-12 64-64zM220 802c-8 12-10 24-10 30 0 20 14 42 20 50s16 14 26 14c10 0 18-6 24-14 4-8 18-30 18-50 0-6-2-18-10-30-6-10-10-14-20-14h-24c-10 0-18 4-24 14zM478 802c-8 12-10 24-10 30 0 20 14 42 20 50s16 14 26 14c10 0 18-6 24-14 4-8 18-30 18-50 0-6-2-18-10-30-6-10-10-14-20-14h-24c-10 0-18 4-24 14zM734 802c-8 12-10 24-10 30 0 20 14 42 20 50s16 14 26 14c10 0 18-6 24-14 4-8 18-30 18-50 0-6-2-18-10-30-6-10-10-14-20-14h-24c-10 0-18 4-24 14z" />
<glyph unicode="&#xe043;" glyph-name="calculator" d="M882 960h-740c-42 0-78-36-78-78v-868c0-42 36-78 78-78h740c42 0 78 36 78 78v868c0 42-36 78-78 78zM896 14c0-8-6-14-14-14h-740c-8 0-14 6-14 14v868c0 8 6 14 14 14h740c8 0 14-6 14-14zM256 256h128v-128h-128zM256 448h128v-128h-128zM448 256h128v-128h-128zM448 448h128v-128h-128zM640 256h128v-128h-128zM640 448h128v-128h-128zM192 576h640v256h-640zM256 768h512v-128h-512z" />
<glyph unicode="&#xe044;" glyph-name="calendar" d="M946 832h-242v96c0 18-14 32-32 32v0c-6 0-12-2-18-6-8-6-14-14-14-26v-96h-256v96c0 18-14 32-32 32v0c-6 0-12-2-18-6-8-6-14-14-14-26v-96h-242c-42 0-78-36-78-78v-740c0-42 36-78 78-78h868c42 0 78 36 78 78v740c0 42-36 78-78 78zM960 0h-896v640h896zM960 704h-896v64h896zM576 448c0-36-28-64-64-64s-64 28-64 64c0 36 28 64 64 64s64-28 64-64zM320 448c0-36-28-64-64-64s-64 28-64 64c0 36 28 64 64 64s64-28 64-64zM832 448c0-36-28-64-64-64s-64 28-64 64c0 36 28 64 64 64s64-28 64-64zM576 192c0-36-28-64-64-64s-64 28-64 64c0 36 28 64 64 64s64-28 64-64zM320 192c0-36-28-64-64-64s-64 28-64 64c0 36 28 64 64 64s64-28 64-64zM832 192c0-36-28-64-64-64s-64 28-64 64c0 36 28 64 64 64s64-28 64-64z" />
<glyph unicode="&#xe045;" glyph-name="calendar.add" d="M896 256h-64v-128h-128v-64h128v-128h64v128h128v64h-128v128zM946 832h-242v96.030c0 17.984-14.016 31.97-32 31.97v0c-6.016 0-12.032-1.954-17.984-5.986-8-6.016-14.016-14.016-14.016-25.984v-96.030h-256v96.030c0 17.984-14.016 31.97-32 31.97v0c-6.016 0-12.032-1.954-17.984-5.986-8-6.016-14.016-14.016-14.016-25.984v-96.030h-241.984c-41.984 0-78.016-36.002-78.016-77.986v-740.032c0-41.982 36.032-77.982 78.016-77.982h689.984v64h-704v640h896v-448h64v561.952c0 41.984-36 78.016-78 78.016v0.032zM960 704h-896v64h896v-64zM576 448.030c0-36.032-28.032-64-64-64s-64 28.032-64 64c0 36.032 28.032 64 64 64s64-28.032 64-64zM320 448.030c0-36.032-28.032-64-64-64s-64 28.032-64 64c0 36.032 28.032 64 64 64s64-28.032 64-64zM832 448.030c0-36.032-28.032-64-64-64s-64 28.032-64 64c0 36.032 28.032 64 64 64s64-28.032 64-64zM576 192.032c0-36.032-28.032-64-64-64s-64 28.032-64 64c0 36.032 28.032 64 64 64s64-28.032 64-64zM320 192.032c0-36.032-28.032-64-64-64s-64 28.032-64 64c0 36.032 28.032 64 64 64s64-28.032 64-64z" />
<glyph unicode="&#xe046;" glyph-name="calendar.alt" d="M992 832h-128v32c0 18-14 32-32 32h-96c-18 0-32-14-32-32v-32h-384v32c0 18-14 32-32 32h-96c-18 0-32-14-32-32v-32h-128c-18 0-32-14-32-32v-768c0-18 14-32 32-32h960c18 0 32 14 32 32v768c0 18-14 32-32 32zM768 832h32v-64h-32zM224 832h32v-64h-32zM960 64h-896v704h96v-32c0-18 14-32 32-32h96c18 0 32 14 32 32v32h384v-32c0-18 14-32 32-32h96c18 0 32 14 32 32v32h96zM288 576h-128c-18 0-32-14-32-32v-128c0-18 14-32 32-32h128c18 0 32 14 32 32v128c0 18-14 32-32 32zM256 448h-64v64h64zM608 576h-192c-18 0-32-14-32-32v-128c0-18 14-32 32-32h192c18 0 32 14 32 32v128c0 18-14 32-32 32zM576 448h-128v64h128zM864 576h-128c-18 0-32-14-32-32v-128c0-18 14-32 32-32h128c18 0 32 14 32 32v128c0 18-14 32-32 32zM832 448h-64v64h64zM288 320h-128c-18 0-32-14-32-32v-128c0-18 14-32 32-32h128c18 0 32 14 32 32v128c0 18-14 32-32 32zM256 192h-64v64h64zM608 320h-192c-18 0-32-14-32-32v-128c0-18 14-32 32-32h192c18 0 32 14 32 32v128c0 18-14 32-32 32zM576 192h-128v64h128zM864 320h-128c-18 0-32-14-32-32v-128c0-18 14-32 32-32h128c18 0 32 14 32 32v128c0 18-14 32-32 32zM832 192h-64v64h64z" />
<glyph unicode="&#xe047;" glyph-name="calendar.remove" d="M704 128h320v-64h-320zM946 832h-242v96c0 18-14 32-32 32v0c-6 0-12-2-18-6-8-6-14-14-14-26v-96h-256v96c0 18-14 32-32 32v0c-6 0-12-2-18-6-8-6-14-14-14-26v-96h-242c-42 0-78-36-78-78v-740c0-42 36-78 78-78h868c38 0 70 28 76 64h-958v640h896v-448h64v562c0 42-36 78-78 78zM960 704h-896v64h896zM576 448c0-36-28-64-64-64s-64 28-64 64c0 36 28 64 64 64s64-28 64-64zM320 448c0-36-28-64-64-64s-64 28-64 64c0 36 28 64 64 64s64-28 64-64zM832 448c0-36-28-64-64-64s-64 28-64 64c0 36 28 64 64 64s64-28 64-64zM576 192c0-36-28-64-64-64s-64 28-64 64c0 36 28 64 64 64s64-28 64-64zM320 192c0-36-28-64-64-64s-64 28-64 64c0 36 28 64 64 64s64-28 64-64zM832 192c0 36-28 64-64 64s-64-28-64-64z" />
<glyph unicode="&#xe048;" glyph-name="camera" d="M946 768h-242v50c0 42-36 78-78 78h-228c-42 0-78-36-78-78v-50h-242c-42 0-78-36-78-78v-612c0-42 36-78 78-78h868c42 0 78 36 78 78v612c0 42-36 78-78 78zM960 78c0-8-6-14-14-14h-868c-8 0-14 6-14 14v612c0 8 6 14 14 14h306v114c0 8 6 14 14 14h228c8 0 14-6 14-14v-114h306c8 0 14-6 14-14zM896 576c0-36-28-64-64-64s-64 28-64 64c0 36 28 64 64 64s64-28 64-64zM512 640c-142 0-256-114-256-256s114-256 256-256c142 0 256 114 256 256s-114 256-256 256zM512 192c-106 0-192 86-192 192s86 192 192 192c106 0 192-86 192-192s-86-192-192-192zM576 384c0-36-28-64-64-64s-64 28-64 64c0 36 28 64 64 64s64-28 64-64z" />
<glyph unicode="&#xe049;" glyph-name="camera.retro" d="M1008 636c-10 6-24 6-32 0l-208-130v102c0 18-14 32-32 32h-82l-128 128h-430c-18 0-32-14-32-32s14-32 32-32h402l64-64h-530c-18 0-32-14-32-32v-512c0-18 14-32 32-32h704c18 0 32 14 32 32v102l208-130c4-2 10-4 16-4s10 2 16 4c10 6 16 16 16 28v512c0 12-6 22-16 28zM960 154l-208 130c-8 6-22 6-32 0s-16-16-16-28v-128h-640v448h640v-128c0-12 6-22 16-28s24-6 32 0l208 130v-396zM128 448h64c18 0 32 14 32 32s-14 32-32 32h-64c-18 0-32-14-32-32s14-32 32-32zM384 384h-256c-18 0-32-14-32-32v-128c0-18 14-32 32-32h256c18 0 32 14 32 32v128c0 18-14 32-32 32zM352 256h-192v64h192z" />
<glyph unicode="&#xe04a;" glyph-name="car" d="M960 640h-64c0 106-86 192-192 192h-384c-106 0-192-86-192-192h-64c-36 0-64-28-64-64v0c0-36 28-64 64-64h18c-12-18-18-40-18-64v-128c0-48 26-90 66-112-2-6-2-10-2-16v-64c0-36 28-64 64-64h64c36 0 64 28 64 64v64h384v-64c0-36 28-64 64-64h64c36 0 64 28 64 64v64c0 6 0 10-2 16 40 22 66 64 66 112v128c0 24-6 46-18 64h18c36 0 64 28 64 64v0c0 36-28 64-64 64zM192 576v64c0 70 58 128 128 128h384c70 0 128-58 128-128v-64h-640zM256 128h-64v64h64zM832 128h-64v64h64zM896 320c0-36-28-64-64-64h-640c-36 0-64 28-64 64v128c0 36 28 64 64 64h640c36 0 64-28 64-64zM576 448h-128c-36 0-64-28-64-64v0c0-36 28-64 64-64h128c36 0 64 28 64 64v0c0 36-28 64-64 64zM768 448v0c-36 0-64-28-64-64v0c0-36 28-64 64-64v0c36 0 64 28 64 64v0c0 36-28 64-64 64zM320 384c0-36-28-64-64-64s-64 28-64 64c0 36 28 64 64 64s64-28 64-64z" />
<glyph unicode="&#xe04b;" glyph-name="carrot" d="M864 704c-56 0-106-16-138-42 26 32 42 82 42 138 0 70-26 132-64 160-38-28-64-90-64-160s26-132 64-160c28-38 90-64 160-64s132 26 160 64c-28 38-90 64-160 64zM570 646c-26 26-58 38-90 38-46 0-90-24-114-68l-358-586c-24-44 12-94 56-94 10 0 20 2 30 8l586 358c76 42 92 142 30 204zM684 406c-4-20-16-38-34-48h-2l-584-358 358 586c12 22 34 34 58 34 16 0 32-6 44-18l142-142c14-14 20-34 18-54z" />
<glyph unicode="&#xe04c;" glyph-name="cd" d="M512 960c-282 0-512-230-512-512s230-512 512-512c282 0 512 230 512 512s-230 512-512 512zM512 0c-248 0-448 200-448 448s200 448 448 448c248 0 448-200 448-448s-200-448-448-448zM512 544c-52 0-96-44-96-96s44-96 96-96c52 0 96 44 96 96s-44 96-96 96zM512 416c-18 0-32 14-32 32s14 32 32 32c18 0 32-14 32-32s-14-32-32-32zM512 128c-176 0-320 144-320 320 0 18-14 32-32 32s-32-14-32-32c0-212 172-384 384-384 18 0 32 14 32 32s-14 32-32 32zM512 832c-18 0-32-14-32-32s14-32 32-32c176 0 320-144 320-320 0-18 14-32 32-32s32 14 32 32c0 212-172 384-384 384z" />
<glyph unicode="&#xe04d;" glyph-name="certificate" d="M160 768c-16 0-32-16-32-32s16-32 32-32h640c16 0 32 16 32 32s-16 32-32 32zM160 576c-16 0-32-16-32-32s16-32 32-32h256c16 0 32 16 32 32s-16 32-32 32zM1024 832v-512c0-70-58-128-128-128h-16c16 20 28 42 36 66 26 10 44 34 44 62v512c0 36-28 64-64 64h-768c-36 0-64-28-64-64v-512c0-36 28-64 64-64h334c8-24 20-44 34-64h-368c-70 0-128 58-128 128v512c0 70 58 128 128 128h768c70 0 128-58 128-128zM688 496c-88 0-160-72-160-160 0-30 8-56 22-80 16-28 40-50 68-64 22-10 46-16 70-16s48 6 70 16c28 14 52 36 68 64 14 24 22 50 22 80 0 88-72 160-160 160zM688 216c-38 0-70 16-92 40-18 20-28 48-28 80 0 68 52 120 120 120s120-52 120-120c0-32-10-60-28-80-22-24-54-40-92-40zM880 192c16 20 28 42 36 66 8 26 12 52 12 78 0 132-108 240-240 240-2 0-2 0-4 0-130-2-236-108-236-240 0-28 4-54 14-80 8-24 20-44 34-64 12-16 28-32 44-44l-50-130c-4-6-2-14 2-20 4-4 10-8 16-8 0 0 2 0 2 0l72 4 50-52c4-4 8-6 14-6 2 0 4 0 4 0v0c8 2 14 6 16 14l22 56 22-56c2-8 8-12 16-14v0 0c0 0 2 0 4 0 6 0 10 2 14 6l50 52 72-4c0 0 0 0 2 0v0c6 0 10 2 14 6s6 10 6 16c0 2 0 6-2 10l-50 126c16 12 32 28 44 44zM668 72v-2l-30-74-32 34c-4 4-10 6-16 6h-2l-48-2 36 90c30-16 66-26 102-28l-10-24zM694 136c-2 0-4 0-6 0-18 0-36 2-54 8-32 8-62 26-84 48-20 18-34 40-46 64-10 24-16 52-16 80 0 108 88 198 196 200 0 0 2 0 4 0s4 0 4 0c108-2 196-92 196-200 0-28-6-56-16-80-12-24-26-46-46-64-34-34-80-54-132-56zM836 34l-48 2c-2 0-2 0-2 0-6 0-10-2-14-6l-34-34-28 68 14 34c28 4 54 14 76 26l36-90z" />
<glyph unicode="&#xe04e;" glyph-name="check" d="M1002 752c-26 24-64 20-88-4l-530-530-276 276c-26 26-68 24-92-4-24-26-20-64 4-88l320-320c24-24 64-24 90 0l576 578c26 26 24 68-4 92z" />
<glyph unicode="&#xe04f;" glyph-name="checkbox" d="M946 960h-868c-42 0-78-36-78-78v-868c0-42 36-78 78-78h868c42 0 78 36 78 78v868c0 42-36 78-78 78zM960 0h-896v896h896z" />
<glyph unicode="&#xe050;" glyph-name="checkbox.checked" d="M932 832c-26 24-66 24-90 0l-394-394-82 84c-26 26-66 26-92 0-24-24-24-66 0-90l174-174 484 484c26 24 24 64 0 90zM960 512h64v-498c0-42-36-78-78-78h-868c-42 0-78 36-78 78v868c0 42 36 78 78 78h626v-64h-640v-896h896z" />
<glyph unicode="&#xe051;" glyph-name="chevron.down" d="M722 622l-210-212-210 212c-26 24-66 24-92 0-24-26-24-66 0-92l256-256c12-10 28-18 46-18s34 8 46 18l256 256c24 26 24 66 0 92-26 24-66 24-92 0z" />
<glyph unicode="&#xe052;" glyph-name="chevron.left" d="M686 238l-212 210 212 210c24 26 24 66 0 92-26 24-66 24-92 0l-256-256c-10-12-18-28-18-46s8-34 18-46l256-256c26-24 66-24 92 0 24 26 24 66 0 92z" />
<glyph unicode="&#xe053;" glyph-name="chevron.right" d="M686 402c10 12 18 28 18 46s-8 34-18 46l-256 256c-26 24-66 24-92 0-24-26-24-66 0-92l212-210-212-210c-24-26-24-66 0-92 26-24 66-24 92 0z" />
<glyph unicode="&#xe054;" glyph-name="chevron.up" d="M558 622c-12 10-28 18-46 18s-34-8-46-18l-256-256c-24-26-24-66 0-92 26-24 66-24 92 0l210 212 210-212c26-24 66-24 92 0 24 26 24 66 0 92z" />
<glyph unicode="&#xe055;" glyph-name="circle.check" d="M660 622l-212-212-84 82c-24 26-64 26-90 0-24-24-24-64 0-90l174-174 302 302c24 26 24 66 0 92-24 24-66 24-90 0zM512 960c-282 0-512-230-512-512s230-512 512-512c282 0 512 230 512 512s-230 512-512 512zM512 0c-248 0-448 200-448 448s200 448 448 448c248 0 448-200 448-448s-200-448-448-448z" />
<glyph unicode="&#xe056;" glyph-name="circle.chevron.down" d="M658 558l-146-148-146 148c-26 24-66 24-92 0-24-26-24-66 0-92l192-192c12-10 28-18 46-18s34 8 46 18l192 192c24 26 24 66 0 92-26 24-66 24-92 0zM512 960c-282 0-512-230-512-512s230-512 512-512c282 0 512 230 512 512s-230 512-512 512zM512 0c-248 0-448 200-448 448s200 448 448 448c248 0 448-200 448-448s-200-448-448-448z" />
<glyph unicode="&#xe057;" glyph-name="circle.chevron.left" d="M622 686c-26 24-66 24-92 0l-192-192c-10-12-18-28-18-46s8-34 18-46l192-192c26-24 66-24 92 0 24 26 24 66 0 92l-148 146 148 146c24 26 24 66 0 92zM512 960c-282 0-512-230-512-512s230-512 512-512c282 0 512 230 512 512s-230 512-512 512zM512 0c-248 0-448 200-448 448s200 448 448 448c248 0 448-200 448-448s-200-448-448-448z" />
<glyph unicode="&#xe058;" glyph-name="circle.chevron.right" d="M494 686c-26 24-66 24-92 0-24-26-24-66 0-92l148-146-148-146c-24-26-24-66 0-92 26-24 66-24 92 0l192 192c10 12 18 28 18 46s-8 34-18 46zM512 960c-282 0-512-230-512-512s230-512 512-512c282 0 512 230 512 512s-230 512-512 512zM512 0c-248 0-448 200-448 448s200 448 448 448c248 0 448-200 448-448s-200-448-448-448z" />
<glyph unicode="&#xe059;" glyph-name="circle.chevron.up" d="M558 622c-12 10-28 18-46 18s-34-8-46-18l-192-192c-24-26-24-66 0-92 26-24 66-24 92 0l146 148 146-148c26-24 66-24 92 0 24 26 24 66 0 92zM512 960c-282 0-512-230-512-512s230-512 512-512c282 0 512 230 512 512s-230 512-512 512zM512 0c-248 0-448 200-448 448s200 448 448 448c248 0 448-200 448-448s-200-448-448-448z" />
<glyph unicode="&#xe05a;" glyph-name="circle.delete" d="M686 622c-26 24-66 24-92 0l-82-84-82 84c-26 24-66 24-92 0-24-26-24-66 0-92l84-82-84-82c-24-26-24-66 0-92 14-12 30-18 46-18s32 6 46 18l82 84 82-84c14-12 30-18 46-18s32 6 46 18c24 26 24 66 0 92l-84 82 84 82c24 26 24 66 0 92zM512 960c-282 0-512-230-512-512s230-512 512-512c282 0 512 230 512 512s-230 512-512 512zM512 0c-248 0-448 200-448 448s200 448 448 448c248 0 448-200 448-448s-200-448-448-448z" />
<glyph unicode="&#xe05b;" glyph-name="circle.minus" d="M704 512h-384c-36 0-64-28-64-64v0c0-36 28-64 64-64h384c36 0 64 28 64 64v0c0 36-28 64-64 64zM512 960c-282 0-512-230-512-512s230-512 512-512c282 0 512 230 512 512s-230 512-512 512zM512 0c-248 0-448 200-448 448s200 448 448 448c248 0 448-200 448-448s-200-448-448-448z" />
<glyph unicode="&#xe05c;" glyph-name="circle.plus" d="M704 512h-128v128c0 36-28 64-64 64v0c-36 0-64-28-64-64v-128h-128c-36 0-64-28-64-64v0c0-36 28-64 64-64h128v-128c0-36 28-64 64-64v0c36 0 64 28 64 64v128h128c36 0 64 28 64 64v0c0 36-28 64-64 64zM512 960c-282 0-512-230-512-512s230-512 512-512c282 0 512 230 512 512s-230 512-512 512zM512 0c-248 0-448 200-448 448s200 448 448 448c248 0 448-200 448-448s-200-448-448-448z" />
<glyph unicode="&#xe05d;" glyph-name="clipboard" d="M882 832h-114c0 36-28 64-64 64h-82c-22 38-62 64-110 64s-88-26-110-64h-82c-36 0-64-28-64-64v0h-114c-44 0-78-36-78-78v-740c0-42 34-78 78-78h740c42 0 78 36 78 78v740c0 42-36 78-78 78zM320 832h128c0 36 28 64 64 64s64-28 64-64h128v-64h-384zM896 14c0-8-6-14-14-14h-740c-8 0-14 6-14 14v740c0 8 6 14 14 14h114v-64h512v64h114c8 0 14-6 14-14zM256 448h192v-64h-192zM256 192h192v-64h-192zM256 320h512v-64h-512zM256 576h512v-64h-512z" />
<glyph unicode="&#xe05e;" glyph-name="clipboard.alt" d="M768 736v-96h-512v96c0 17.6-14.4 32-32 32h-64c-17.6 0-32-14.4-32-32v-672c0-35.4 28.6-64 64-64h640c35.4 0 64 28.6 64 64v672c0 17.6-14.4 32-32 32h-64c-17.6 0-32-14.4-32-32zM816 64h-608c-8.8 0-16 7.2-16 16v480c0 8.8 7.2 16 16 16h608c8.8 0 16-7.2 16-16v-480c0-8.8-7.2-16-16-16zM672 832h-32c-1 35.6-30.2 64-66 64h-124c-35.8 0-64.8-28.4-66-64h-32c-17.6 0-32-14.4-32-32v-64c0-17.6 14.4-32 32-32h320c17.6 0 32 14.4 32 32v64c0 17.6-14.4 32-32 32zM576 800c0-17.6-14.4-32-32-32h-64c-17.6 0-32 14.4-32 32v0c0 17.6 14.4 32 32 32h64c17.6 0 32-14.4 32-32v0zM672 448h-320c-17.6 0-32 14.4-32 32v0c0 17.6 14.4 32 32 32h320c17.6 0 32-14.4 32-32v0c0-17.6-14.4-32-32-32zM544 192h-192c-17.6 0-32 14.4-32 32v0c0 17.6 14.4 32 32 32h192c17.6 0 32-14.4 32-32v0c0-17.6-14.4-32-32-32zM612 320h-260c-17.6 0-32 14.4-32 32v0c0 17.6 14.4 32 32 32h260c17.6 0 32-14.4 32-32v0c0-17.6-14.4-32-32-32z" />
<glyph unicode="&#xe05f;" glyph-name="clock" d="M512 960c-282 0-512-230-512-512s230-512 512-512c282 0 512 230 512 512s-230 512-512 512zM512 0c-248 0-448 200-448 448s200 448 448 448c248 0 448-200 448-448s-200-448-448-448zM736 448h-224v288c0 18-14 32-32 32s-32-14-32-32v-352h288c18 0 32 14 32 32s-14 32-32 32z" />
<glyph unicode="&#xe060;" glyph-name="close" d="M686 622c-26 24-66 22-92-2l-82-82-82 84c-26 24-66 24-92 0-24-26-24-66 0-92l84-82-84-82c-24-26-24-66 0-92 14-12 30-18 46-18s32 6 46 18l82 84 82-84c14-12 30-18 46-18s32 6 46 18c24 26 24 66 0 92l-84 82 84 84c24 24 24 64 0 90z" />
<glyph unicode="&#xe061;" glyph-name="cloud.download" d="M800 512c0 0-2 0-2 0-16 144-138 256-286 256s-270-112-286-256c0 0-2 0-2 0-124 0-224-100-224-224s100-224 224-224h576c124 0 224 100 224 224s-100 224-224 224zM800 128h-576c-88 0-160 72-160 160s72 160 160 160c0 0 0 0 2 0h58l6 56c12 114 108 200 222 200s210-86 222-200l6-56h58c2 0 2 0 2 0 88 0 160-72 160-160s-72-160-160-160zM576 576h-128v-192h-128l192-192 192 192h-128z" />
<glyph unicode="&#xe062;" glyph-name="cloud.upload" d="M800 512c0 0-2 0-2 0-16 144-138 256-286 256s-270-112-286-256c0 0-2 0-2 0-124 0-224-100-224-224s100-224 224-224h576c124 0 224 100 224 224s-100 224-224 224zM800 128h-576c-88 0-160 72-160 160s72 160 160 160c0 0 0 0 2 0h58l6 56c12 114 108 200 222 200s210-86 222-200l6-56h58c2 0 2 0 2 0 88 0 160-72 160-160s-72-160-160-160zM320 384h128v-192h128v192h128l-192 192z" />
<glyph unicode="&#xe063;" glyph-name="code" d="M110 750c-26 24-66 24-92 0-24-26-24-66 0-92l212-210-212-210c-24-26-24-66 0-92 26-24 66-24 92 0l256 256c10 12 18 28 18 46s-8 34-18 46zM896 160c0-18-14-32-32-32h-448c-18 0-32 14-32 32v64c0 18 14 32 32 32h448c18 0 32-14 32-32z" />
<glyph unicode="&#xe064;" glyph-name="code.alt" d="M262 294l-176 144 176 146c14 12 14 34 0 46-12 14-34 14-48 0l-204-166c-8-6-10-16-10-26 0-8 2-18 10-26l204-166c14-14 36-14 48 0 14 14 14 34 0 48zM1014 464l-204 166c-14 14-36 14-48 0-14-12-14-34 0-46l176-146-176-144c-14-14-14-34 0-48 12-14 34-14 48 0l204 166c8 8 10 18 10 26 0 10-2 20-10 26zM750 892c-16 8-38 4-48-12l-426-830c-10-16-6-42 12-46 22-6 38-4 48 12l426 830c10 16 4 36-12 46z" />
<glyph unicode="&#xe065;" glyph-name="cog" d="M994 576h-100c-12 0-22 8-28 18 0 0 0 2 0 2-4 10-2 24 8 32l70 70c10 12 10 32 0 42l-138 140c-6 4-14 8-22 8s-16-4-22-8l-70-70c-6-6-14-10-22-10-2 0-6 2-10 2 0 0 0 0-2 0-10 6-18 16-18 28v100c0 16-14 30-30 30h-196c-16 0-30-14-30-30v-100c0-12-8-22-18-28 0 0 0 0-2 0s-6-2-10-2c-8 0-16 4-22 10l-70 70c-6 4-14 8-22 8s-14-4-20-8l-138-140c-12-10-12-30 0-42l68-70c10-8 12-22 8-32 0 0 0-2 0-2-6-10-16-18-28-18h-100c-16 0-30-14-30-30v-196c0-16 14-30 30-30h100c12 0 22-8 28-18 0 0 0-2 0-2 4-10 2-24-8-32l-68-70c-12-12-12-32 0-42l138-140c6-4 12-8 20-8s16 4 22 8l70 70c6 6 14 10 22 10 4 0 8-2 10-2s2 0 2 0c10-6 18-16 18-28v-100c0-16 14-30 30-30h196c16 0 30 14 30 30v100c0 12 8 22 20 28 0 0 0 0 0 0 4 0 8 2 12 2 6 0 14-4 20-10l70-70c6-4 14-8 22-8s16 4 22 8l138 140c12 10 12 30 0 42l-70 70c-10 8-12 22-8 32 0 0 2 2 2 2 4 10 14 18 28 18h98c16 0 30 14 30 30v196c0 16-14 30-30 30zM960 384h-66c-38 0-72-22-86-58-16-36-8-76 20-104l46-46-90-90-46 46c-18 18-42 28-68 28-12 0-24-2-36-8-36-14-58-48-58-86v-66h-128v66c0 38-24 72-58 86-12 6-24 8-36 8-26 0-50-10-68-28l-46-46-90 90 46 46c26 28 34 68 20 104s-48 58-88 58h-64v128h64c40 0 74 24 88 58 14 36 6 76-20 104l-46 46 90 90 46-46c18-18 42-28 68-28 12 0 24 2 36 8 34 14 58 48 58 86v66h128v-66c0-38 22-72 58-86 12-6 24-8 36-8 26 0 50 10 68 28l46 46 90-90-46-46c-28-28-36-68-20-104 14-36 48-58 86-58h66v-128zM576 448c0-36-28-64-64-64s-64 28-64 64c0 36 28 64 64 64s64-28 64-64zM512 640c-106 0-192-86-192-192s86-192 192-192c106 0 192 86 192 192s-86 192-192 192zM512 320c-70 0-128 58-128 128s58 128 128 128c70 0 128-58 128-128s-58-128-128-128z" />
<glyph unicode="&#xe066;" glyph-name="cogs" d="M832 192c0-36-28-64-64-64s-64 28-64 64c0 36 28 64 64 64s64-28 64-64zM1008 256h-48c-6 0-12 4-14 10 0 0 0 0 0 0-2 6-2 12 2 16l36 34c6 6 6 16 0 22l-70 70c-2 2-6 4-10 4s-8-2-10-4l-36-36c-2-2-6-4-10-4-2 0-4 0-6 2 0 0 0 0 0 0-6 2-10 8-10 14v48c0 10-6 16-16 16h-96c-10 0-16-6-16-16v-48c0-6-4-12-10-14 0 0 0 0 0 0-2-2-4-2-6-2-4 0-8 2-10 4l-36 36c0 0 0 0-2 2 0 0 0 0-2 0 0 0 0 0 0 0-2 2-4 2-6 2-4 0-8-2-10-4l-70-70c-6-6-6-16 0-20l36-36c4-4 4-10 2-16 0 0 0 0 0 0-2-6-8-10-14-10h-48c-10 0-16-6-16-16v-96c0-10 6-16 16-16h48c6 0 12-4 14-10 0 0 0 0 0 0 2-6 2-12-2-16l-36-34c-6-6-6-16 0-22l70-70c2-2 6-4 10-4s8 2 10 4l36 36c2 2 6 4 10 4 2 0 4 0 6-2 0 0 0 0 0 0 6-2 10-8 10-14v-48c0-10 6-16 16-16h96c10 0 16 6 16 16v48c0 6 4 12 10 14 0 0 0 0 0 0 2 2 4 2 6 2 4 0 8-2 10-4l36-36c2-2 6-4 10-4s8 2 10 4l70 70c6 6 6 16 0 22l-36 34c-4 4-4 10-2 16 0 0 0 0 0 0 2 6 8 10 14 10h48c10 0 16 6 16 16v96c0 10-6 16-16 16zM886 144v0-2c-12-30-6-62 18-86-16 16-36 24-56 24-10 0-20-2-30-6h-2c-30-14-48-42-48-74 0 32-18 60-48 74v0h-2c-10 4-20 6-30 6-20 0-40-8-54-24 22 24 28 56 16 86v2c-14 30-42 48-74 48 32 0 60 18 74 48v0 2c12 30 6 62-16 84 14-14 34-22 54-22 10 0 20 2 30 6h2c30 14 48 42 48 74 0-32 18-60 48-74v0h2c10-4 20-6 30-6 20 0 40 8 56 22-24-22-30-56-18-84v-2c14-30 42-48 74-48-32 0-60-18-74-48zM448 192h-72v40c0 36-22 68-54 82v0h-2c-10 6-22 8-34 8-22 0-46-10-62-26l-28-30-58 58 30 28c26 26 32 64 18 98v0 0c-14 32-46 54-82 54h-40v80h40c36 0 68 22 82 54v0 2c14 32 6 70-18 96l-30 28 58 58 28-30c16-16 40-26 62-26 12 0 24 2 34 8h2c32 14 54 46 54 82v40h80v-40c0-36 22-68 54-82v0h2c10-6 22-8 32-8 24 0 46 10 64 26l28 30 58-58-30-28c-26-26-32-64-20-96l2-2c14-32 46-54 82-54h40v-72h48c6 0 10 0 16-2v114c0 14-12 24-24 24h-80c-10 0-20 6-24 16 0 0 0 0 0 0-4 10-2 20 6 26l56 58c10 10 10 24 0 34l-112 112c-4 6-12 8-18 8s-12-2-16-8l-58-56c-4-4-10-8-18-8-2 0-6 2-8 2 0 0 0 0 0 0-10 4-16 14-16 24v80c0 14-12 24-24 24h-160c-14 0-24-10-24-24v-80c0-10-6-20-16-24 0 0 0 0 0 0-2 0-6-2-10-2-6 0-12 4-16 8l-58 56c-4 6-10 8-16 8-8 0-14-2-18-8l-112-112c-10-10-10-24 0-34l56-58c8-6 10-16 6-26 0 0 0 0 0 0-4-10-14-16-24-16h-80c-14 0-24-10-24-24v-158c0-14 10-26 24-26h80c10 0 20-6 24-14 0-2 0-2 0-2 4-8 2-20-6-26l-56-56c-10-10-10-26 0-36l112-112c4-4 10-8 18-8 6 0 12 4 16 8l58 56c4 6 10 8 16 8 4 0 8 0 10-2 0 0 0 0 0 0 10-4 16-12 16-22v-80c0-14 10-26 24-26h114c-2 6-2 10-2 16v48zM416 704c-88 0-160-72-160-160s72-160 160-160c88 0 160 72 160 160s-72 160-160 160zM416 448c-52 0-96 44-96 96s44 96 96 96c52 0 96-44 96-96s-44-96-96-96z" />
<glyph unicode="&#xe067;" glyph-name="columns" d="M944 960h-864c-44 0-80-36-80-80v-866c0-42 36-78 78-78h868c42 0 78 36 78 78v866c0 44-36 80-80 80zM64 0v832h384v-832zM960 0h-384v832h384z" />
<glyph unicode="&#xe068;" glyph-name="comment" d="M896 960h-768c-70 0-128-58-128-128v-512c0-70 58-128 128-128h128v-256l256 256h384c70 0 128 58 128 128v512c0 70-58 128-128 128zM960 320c0-36-28-64-64-64h-410l-166-166v166h-192c-36 0-64 28-64 64v512c0 36 28 64 64 64h768c36 0 64-28 64-64z" />
<glyph unicode="&#xe069;" glyph-name="comment.add" d="M896 256h-64v-128h-128v-64h128v-128h64v128h128v64h-128zM896 960h-768c-70 0-128-58-128-128v-512c0-70 58-128 128-128h128v-256l256 256h256v64h-282l-166-166v166h-192c-36 0-64 28-64 64v512c0 36 28 64 64 64h768c36 0 64-28 64-64v-622c38 22 64 62 64 110v512c0 70-58 128-128 128z" />
<glyph unicode="&#xe06a;" glyph-name="comment.remove" d="M896 960h-768c-70 0-128-58-128-128v-512c0-70 58-128 128-128h128v-256l256 256h384c70 0 128 58 128 128v512c0 70-58 128-128 128zM960 320c0-36-28-64-64-64h-410l-166-166v166h-192c-36 0-64 28-64 64v512c0 36 28 64 64 64h768c36 0 64-28 64-64zM704 128h320v-64h-320z" />
<glyph unicode="&#xe06b;" glyph-name="compass" d="M512 960c-282 0-512-230-512-512s230-512 512-512c282 0 512 230 512 512s-230 512-512 512zM512 4c-246 0-444 200-444 444 0 246 198 444 444 444 244 0 444-198 444-444 0-244-200-444-444-444zM512 398c-28 0-50 22-50 50s22 50 50 50c28 0 50-22 50-50s-22-50-50-50zM516 362l60-36-256-198 50 320 58-36-34-158 122 108zM448 570l256 198-46-320-60 34 32 160-122-108-60 36z" />
<glyph unicode="&#xe06c;" glyph-name="compress" d="M128 352c0 18 14 32 32 32h256c18 0 32-14 32-32v-256c0-18-14-32-32-32s-32 14-32 32v178l-330-328c-6-6-14-10-22-10-18 0-32 14-32 32 0 8 4 16 10 22l328 330h-178c-18 0-32 14-32 32zM608 832c18 0 32-14 32-32v-178l330 328c6 6 14 10 22 10 18 0 32-14 32-32 0-8-4-16-10-22l-328-330h178c18 0 32-14 32-32s-14-32-32-32h-256c-18 0-32 14-32 32v256c0 18 14 32 32 32z" />
<glyph unicode="&#xe06d;" glyph-name="content.left" d="M960 960h-320c-36 0-64-28-64-64v-320c0-36 28-64 64-64h320c36 0 64 28 64 64v320c0 36-28 64-64 64zM960 576h-320v320h320zM1024 320c0 36-28 64-64 64h-320c-36 0-64-28-64-64v-320c0-36 28-64 64-64h320c36 0 64 28 64 64zM960 0h-320v320h320zM384 960h-320c-36 0-64-28-64-64v-896c0-36 28-64 64-64h320c36 0 64 28 64 64v896c0 36-28 64-64 64zM384 0h-320v896h320z" />
<glyph unicode="&#xe06e;" glyph-name="content.right" d="M0 896v-320c0-36 28-64 64-64h320c36 0 64 28 64 64v320c0 36-28 64-64 64h-320c-36 0-64-28-64-64zM64 896h320v-320h-320zM0 0c0-36 28-64 64-64h320c36 0 64 28 64 64v320c0 36-28 64-64 64h-320c-36 0-64-28-64-64zM64 320h320v-320h-320zM576 896v-896c0-36 28-64 64-64h320c36 0 64 28 64 64v896c0 36-28 64-64 64h-320c-36 0-64-28-64-64zM640 896h320v-896h-320z" />
<glyph unicode="&#xe06f;" glyph-name="contrast" d="M512 960c-282 0-512-230-512-512s230-512 512-512c282 0 512 230 512 512s-230 512-512 512zM512 0c-248 0-448 200-448 448s200 448 448 448c248 0 448-200 448-448s-200-448-448-448zM896 448c0-220-164-384-384-384v768c220 0 384-164 384-384z" />
<glyph unicode="&#xe070;" glyph-name="copy" d="M960 192h-640c-36 0-64 28-64 64v640c0 36 28 64 64 64h640c36 0 64-28 64-64v-640c0-36-28-64-64-64zM960 896h-640v-640h640zM64 512h-64v128c0 36 28 64 64 64h160v-64h-160zM64 192h-64v256h64zM64 0h128v-64h-128c-36 0-64 28-64 64v128h64zM512-64h-256v64h256zM704 0v128h64v-128c0-36-28-64-64-64h-128v64z" />
<glyph unicode="&#xe071;" glyph-name="crayon" d="M888 688l-588-588-136 136 588 588zM888 960l-90-90 136-136 90 90zM132 178l-132-242 242 132z" />
<glyph unicode="&#xe072;" glyph-name="credit.card" d="M946 832h-868c-44 0-78-36-78-78v-612c0-42 34-78 78-78h868c42 0 78 36 78 78v612c0 42-36 78-78 78zM960 142c0-8-6-14-14-14h-868c-8 0-14 6-14 14v306h896zM960 512h-896v64h896zM960 704v-64h-896v114c0 8 6 14 14 14h868c8 0 14-6 14-14zM192 320h640v-64h-640z" />
<glyph unicode="&#xe073;" glyph-name="crop" d="M992 128h-96v544l-64-64v-480h-596l700 730-46 44-698-728v594h448l64 64h-512v96c0 18-14 32-32 32s-32-14-32-32v-96h-96c-18 0-32-14-32-32s14-32 32-32h96v-704h704v-96c0-18 14-32 32-32s32 14 32 32v96h96c18 0 32 14 32 32s-14 32-32 32z" />
<glyph unicode="&#xe074;" glyph-name="css" d="M152 896l-34-172h700l-22-112h-700l-34-170h700l-40-196-282-94-244 94 16 84h-172l-40-206 404-154 466 154 154 772h-872z" />
<glyph unicode="&#xe075;" glyph-name="cup" d="M864 768h-32v128c0 36-28 64-64 64h-512c-36 0-64-28-64-64v-128h-32c-18 0-32-14-32-32v0c0-18 14-32 32-32h36l56-708c2-34 30-60 64-60h392c34 0 62 26 64 60l56 708h36c18 0 32 14 32 32v0c0 18-14 32-32 32zM256 896h512v-128h-512zM316 0l-10 128h412l-10-128h-392zM724 192h-424l-38 512h500zM512 320c70 0 128 58 128 128s-58 128-128 128c-70 0-128-58-128-128s58-128 128-128zM512 512c36 0 64-28 64-64s-28-64-64-64c-36 0-64 28-64 64s28 64 64 64z" />
<glyph unicode="&#xe076;" glyph-name="cut" d="M762-64c94 0 172 78 172 172 0 96-78 172-172 172-32 0-60-8-86-22l-108 106 16 12c6 6 10 12 12 20l150 506c6 22-6 44-26 52-22 6-44-6-50-28l-146-494-14-12-8 10-138 500c-8 22-30 34-50 28-22-6-34-28-28-50l140-512c2-8 6-14 10-18l10-10-120-96c-2-2-2-2-4-4-18 8-38 12-60 12-94 0-172-78-172-172s78-172 172-172c94 0 172 78 172 172 0 42-16 82-42 112l112 90 114-110c-18-26-28-58-28-92 0-94 78-172 172-172zM262 18c-50 0-92 40-92 90s42 92 92 92c50 0 90-42 90-92s-40-90-90-90zM854 108c0-50-42-90-92-90s-90 40-90 90c0 50 40 92 90 92s92-42 92-92z" />
<glyph unicode="&#xe077;" glyph-name="dashboard" d="M512 704c-200 0-362-158-362-352 0-16 14-32 30-32s32 16 32 32c0 162 134 288 300 288s300-126 300-288c0-16 16-32 32-32s30 16 30 32c0 194-162 352-362 352zM512 832c-282 0-512-230-512-512 0-108 36-218 100-308 6-8 16-12 26-12h772c10 0 20 4 26 12 64 90 100 198 100 308 0 282-230 512-512 512zM142 64c-52 76-78 166-78 256 0 250 200 448 448 448s448-200 448-448c0-92-26-180-78-256h-740zM678 502l-2 2c-6 4-8 8-16 8-4 0-12-2-16-4-24-8-238-80-286-134-28-32-42-70-38-110s24-76 56-102c28-22 64-34 100-34 46 0 90 18 120 52 48 56 88 270 92 294 2 10-2 22-10 28zM386 270c-2 24 4 46 20 64 22 24 120 68 212 102-20-92-48-194-70-218-18-18-46-26-74-26-22 0-42 4-58 16-18 16-28 38-30 62z" />
<glyph unicode="&#xe078;" glyph-name="data" d="M512 960c-216 0-448-66-448-208v-608c0-142 232-208 448-208s448 66 448 208v608c0 142-232 208-448 208zM896 144c0-80-172-144-384-144s-384 64-384 144v120c66-68 226-104 384-104s318 36 384 104zM896 336v0c0 0 0 0 0 0 0-80-172-144-384-144s-384 64-384 144c0 0 0 0 0 0v0 120c66-68 226-104 384-104s318 36 384 104zM896 528v0c0 0 0 0 0-2 0-78-172-142-384-142s-384 64-384 144c0 0 0 0 0 0v0 110c84-64 238-94 384-94s300 30 384 94zM512 608c-212 0-384 64-384 144s172 144 384 144c212 0 384-64 384-144s-172-144-384-144zM768 128c0 32 0 32 32 32s32 0 32-32 0-32-32-32-32 0-32 32zM768 320c0 32 0 32 32 32s32 0 32-32 0-32-32-32-32 0-32 32zM768 512c0 32 0 32 32 32s32 0 32-32 0-32-32-32-32 0-32 32z" />
<glyph unicode="&#xe079;" glyph-name="database" d="M928 288c-16 0-32-16-32-32v-128c0-36-42-64-118-90-76-28-174-38-266-38s-192 10-266 38c-78 26-118 54-118 90v128c0 16-16 32-32 32s-32-16-32-32v-128c0-56 48-98 134-136 82-36 194-56 314-56s232 20 314 56c86 38 134 80 134 136v128c0 16-16 32-32 32zM928 544c-16 0-32-16-32-32v-128c0-36-42-64-118-90-76-28-174-38-266-38s-192 10-266 38c-78 26-118 54-118 90v128c0 16-16 32-32 32s-32-16-32-32v-128c0-56 48-98 134-136 82-36 194-56 314-56s232 20 314 56c86 38 134 80 134 136v128c0 16-16 32-32 32zM826 904c-82 36-194 56-314 56s-232-20-314-56c-86-38-134-80-134-136v-128c0-56 48-98 134-136 82-36 194-56 314-56s232 20 314 56c86 38 134 80 134 136v128c0 56-48 98-134 136zM778 550c-76-28-174-38-266-38s-192 10-266 38c-78 26-118 54-118 90v128c0 36 42 64 118 90 74 28 174 38 266 38s192-10 266-38c76-26 118-54 118-90v-128c0-36-42-64-118-90z" />
<glyph unicode="&#xe07a;" glyph-name="date" d="M768 832v96c0 22-10 32-32 32s-32-10-32-32v-96h-384v96c0 22-10 32-32 32s-32-10-32-32v-96h-160c-22 0-32-10-32-32v-832c0-22 10-32 32-32h832c22 0 32 10 32 32v832c0 22-10 32-32 32zM896 0h-768v576h768zM896 640h-768v128h128v-32c0-22 10-32 32-32s32 10 32 32v32h384v-32c0-22 10-32 32-32s32 10 32 32v32h128zM448 416v-256c0-18-14-32-32-32s-32 14-32 32v224h-96c-18 0-32 14-32 32s14 32 32 32c0 0 110 0 128 0s32-14 32-32zM768 416v-256c0-18-14-32-32-32s-32 14-32 32v224h-96c-18 0-32 14-32 32s14 32 32 32c0 0 110 0 128 0s32-14 32-32z" />
<glyph unicode="&#xe07b;" glyph-name="delete" d="M874 816c-26 24-64 20-88-4l-274-274-274 276c-26 24-66 24-90 0l-2-2c-24-24-24-64 0-90l276-274-276-274c-24-26-24-66 0-90l2-2c24-24 64-24 90 0l274 276 274-274c24-24 62-28 88-4 28 24 30 66 4 92l-276 276 276 276c26 26 24 68-4 92z" />
<glyph unicode="&#xe07c;" glyph-name="desktop" d="M946 896h-868c-42 0-78-36-78-78v-612c0-42 36-78 78-78h306v-128h-64c-36 0-64-28-64-64v0h512c0 36-28 64-64 64h-64v128h306c42 0 78 36 78 78v612c0 42-36 78-78 78zM64 192v640h896v-640zM448 0v128h128v-128z" />
<glyph unicode="&#xe07d;" glyph-name="dices" d="M640 576v288c0 56-40 96-96 96h-448c-56 0-96-40-96-96v-448c0-56 40-96 96-96h288v-288c0-56 40-96 96-96h448c56 0 96 40 96 96v448c0 56-40 96-96 96zM96 384c-16 0-32 16-32 32v448c0 16 16 32 32 32h448c20 0 32-16 32-32v-288h-96c-56 0-96-40-96-96v-96zM960 32c0-14-12-32-32-32h-448c-16 0-32 16-32 32v448c0 16 16 32 32 32h448c18 0 32-16 32-32zM320 704c-36 0-64-28-64-64s28-64 64-64c36 0 64 28 64 64s-28 64-64 64zM448 704c36 0 64 28 64 64s-28 64-64 64c-36 0-64-28-64-64s28-64 64-64zM256 768c0-36-28-64-64-64s-64 28-64 64c0 36 28 64 64 64s64-28 64-64zM256 512c0-36-28-64-64-64s-64 28-64 64c0 36 28 64 64 64s64-28 64-64zM768 256c0-36-28-64-64-64s-64 28-64 64c0 36 28 64 64 64s64-28 64-64zM832 448c-36 0-64-28-64-64s28-64 64-64c36 0 64 28 64 64s-28 64-64 64zM640 128c0-36-28-64-64-64s-64 28-64 64c0 36 28 64 64 64s64-28 64-64z" />
<glyph unicode="&#xe07e;" glyph-name="directions" d="M980 630l-178 192c-6 6-14 10-22 10h-268v64c0 16-14 32-32 32s-32-16-32-32v-64h-352c-18 0-32-14-32-32v-384c0-18 14-32 32-32h350v-416c0-16 16-32 34-32s32 16 32 32v416h268c8 0 16 4 22 10l182 196c12 12 10 26-2 38l-2 2zM768 448h-640v320h640l148-160z" />
<glyph unicode="&#xe07f;" glyph-name="download" d="M960 384h-128c-36 0-64-28-64-64v-96c0-18-14-32-32-32h-448c-18 0-32 14-32 32v96c0 36-28 64-64 64h-128c-36 0-64-28-64-64v-320c0-52 12-64 64-64h896c52 0 64 12 64 64v320c0 36-28 64-64 64zM960 32c0-18-14-32-32-32h-832c-18 0-32 14-32 32v256c0 18 14 32 32 32h64c18 0 32-14 32-32v-96c0-52 12-64 64-64h512c52 0 64 12 64 64v96c0 18 14 32 32 32h64c18 0 32-14 32-32zM280 542l210-214c12-12 32-12 44 0l210 214c12 14 10 32-8 32h-160v288c0 18-14 32-32 32h-64c-18 0-32-14-32-32v-288h-160c-18 0-20-18-8-32z" />
<glyph unicode="&#xe080;" glyph-name="download.alt" d="M832 64h-640c-36 0-64-28-64-64s28-64 64-64h640c36 0 64 28 64 64s-28 64-64 64zM576 512v384c0 36-28 64-64 64s-64-28-64-64v-384h-256l320-384 320 384zM328 448h368l-184-220-184 220z" />
<glyph unicode="&#xe081;" glyph-name="drop" d="M512-64c-194 0-384 158-384 350 0 224 344 642 356 660 6 8 18 14 28 14 12 0 18-6 24-14 14-18 360-428 360-660 0-192-188-350-384-350zM512 862c-74-106-320-408-320-576 0-156 162-288 320-288 160 0 320 132 320 288 0 174-244 472-320 576z" />
<glyph unicode="&#xe082;" glyph-name="dropbox" d="M736 928l-224-192 288-192 224 192zM512 736l-224 192-288-192 224-192zM800 544l224-192-288-160-224 192zM512 384l-288 160-224-192 288-160zM728 114l-216 186-216-186-136 76v-94l352-160 352 160v94z" />
<glyph unicode="&#xe083;" glyph-name="dropper" d="M972 908c-32 34-72 50-120 52h-2c-46 0-86-16-118-48l-76-76-12 14c-14 14-30 20-52 20s-38-6-52-20l-68-68c-14-14-22-32-22-52 0-22 8-40 22-52l42-42-406-404c-10-12-26-38-46-82-2-2-2-4-4-6-2-6-4-12-8-18l-12-24c-6-12-12-24-20-32-12-16-18-32-18-48s10-34 30-54c22-22 38-32 54-32h4c14 0 28 6 44 18 12 10 24 16 34 20 12 6 24 12 36 18 0 0 8 4 12 4 38 20 68 36 80 48l406 406 40-42c14-14 32-22 52-22s38 8 52 22l68 68c14 14 22 32 22 52 0 22-8 38-22 52l-14 12 76 76c34 34 50 74 50 120 0 48-18 88-52 120zM250 90c-8-8-22-14-42-24-6-4-14-6-20-10-18-10-34-16-50-24l-40-24c-2-2-4-4-8-6h-4c-2 0-6 4-12 10l-8 12 4 10c10 16 18 28 26 40 8 18 16 34 20 44l2 6c18 36 30 56 36 62l404 406 98-96-406-406zM852 894c30 0 56-10 76-30 22-20 32-46 32-76 2-28-10-54-30-76l-120-120 56-56c6-6 6-10 0-16l-66-66c-2-2-4-4-8-4-2 0-4 2-6 2l-270 270c-2 2-4 4-4 8 0 2 2 6 4 8l68 68c2 0 6 2 8 2s4-2 6-2h2l58-60 118 120c20 20 48 28 76 28z" />
<glyph unicode="&#xe084;" glyph-name="earth" d="M512 960c-282 0-512-230-512-512s230-512 512-512c282 0 512 230 512 512s-230 512-512 512zM512 0c-248 0-448 200-448 448s200 448 448 448c248 0 448-200 448-448s-200-448-448-448zM576 672c0 0 64-2 64 32 0 0-186 102-352-64 0 0-6-30 32-30v-66c0 0 62-8 96-64 0 0 28 0 32 32s-14 58 32 96h64c0 0 32 36 32 64zM736 384h-32c-104 104-136 96-160 96s-32-32-32-32v-128c56-56 64-104 64-128s32-32 32-32c66 0 160 164 160 192s-32 32-32 32z" />
<glyph unicode="&#xe085;" glyph-name="ellipsis.horizontal" d="M512 576c70 0 128-58 128-128s-58-128-128-128c-70 0-128 58-128 128s58 128 128 128zM128 576c70 0 128-58 128-128s-58-128-128-128c-70 0-128 58-128 128s58 128 128 128zM896 576c70 0 128-58 128-128s-58-128-128-128c-70 0-128 58-128 128s58 128 128 128z" />
<glyph unicode="&#xe086;" glyph-name="ellipsis.horizontal.alt" d="M128 576c-70 0-128-58-128-128s58-128 128-128c70 0 128 58 128 128s-58 128-128 128zM128 384c-36 0-64 28-64 64s28 64 64 64c36 0 64-28 64-64s-28-64-64-64zM896 576c-70 0-128-58-128-128s58-128 128-128c70 0 128 58 128 128s-58 128-128 128zM896 384c-36 0-64 28-64 64s28 64 64 64c36 0 64-28 64-64s-28-64-64-64zM512 576c-70 0-128-58-128-128s58-128 128-128c70 0 128 58 128 128s-58 128-128 128zM512 384c-36 0-64 28-64 64s28 64 64 64c36 0 64-28 64-64s-28-64-64-64z" />
<glyph unicode="&#xe087;" glyph-name="ellipsis.vertical" d="M640 448c0-70-58-128-128-128s-128 58-128 128c0 70 58 128 128 128s128-58 128-128zM640 832c0-70-58-128-128-128s-128 58-128 128c0 70 58 128 128 128s128-58 128-128zM640 64c0-70-58-128-128-128s-128 58-128 128c0 70 58 128 128 128s128-58 128-128z" />
<glyph unicode="&#xe088;" glyph-name="ellipsis.vertical.alt" d="M640 832c0 70-58 128-128 128s-128-58-128-128c0-70 58-128 128-128s128 58 128 128zM448 832c0 36 28 64 64 64s64-28 64-64c0-36-28-64-64-64s-64 28-64 64zM640 64c0 70-58 128-128 128s-128-58-128-128c0-70 58-128 128-128s128 58 128 128zM448 64c0 36 28 64 64 64s64-28 64-64c0-36-28-64-64-64s-64 28-64 64zM640 448c0 70-58 128-128 128s-128-58-128-128c0-70 58-128 128-128s128 58 128 128zM448 448c0 36 28 64 64 64s64-28 64-64c0-36-28-64-64-64s-64 28-64 64z" />
<glyph unicode="&#xe089;" glyph-name="email" d="M960 64h-896c-36 0-64 28-64 64v640c0 36 28 64 64 64h896c36 0 64-28 64-64v-640c0-36-28-64-64-64zM110 768l402-402 402 402zM960 722l-426-424c-6-6-14-10-22-10s-16 4-22 10l-426 424v-548l202 200 44-44-200-202h804l-200 202 44 44 202-200v548z" />
<glyph unicode="&#xe08a;" glyph-name="expand" d="M32 256c18 0 32-14 32-32v-178l330 328c6 6 14 10 22 10 18 0 32-14 32-32 0-8-4-16-10-22l-328-330h178c18 0 32-14 32-32s-14-32-32-32h-256c-18 0-32 14-32 32v256c0 18 14 32 32 32zM704 928c0 18 14 32 32 32h256c18 0 32-14 32-32v-256c0-18-14-32-32-32s-32 14-32 32v178l-330-328c-6-6-14-10-22-10-18 0-32 14-32 32 0 8 4 16 10 22l328 330h-178c-18 0-32 14-32 32z" />
<glyph unicode="&#xe08b;" glyph-name="eye" d="M496 768c112 0 200-34 282-86 92-56 168-130 234-214 16-20 16-22 2-42-84-116-186-208-320-262-66-28-136-38-208-36-78 4-154 28-222 66-106 58-192 140-260 242-4 8-6 16 0 24 88 114 190 208 324 268 58 26 118 42 168 40zM512 192c54 0 102 4 152 24 116 44 206 124 282 218 6 10 4 16-2 22-66 78-140 144-228 194-116 62-238 74-362 24 22 10-136-54-274-214-8-10-8-18 0-26 44-58 94-108 152-150 84-60 176-92 280-92zM512 640c106 0 192-86 192-192s-86-192-192-192c-106 0-192 86-192 192s86 192 192 192z" />
<glyph unicode="&#xe08c;" glyph-name="eye.blocked" d="M512 640c-106 0-192-86-192-192 0-42 14-80 36-112l268 268c-32 22-70 36-112 36zM400 292c32-22 70-36 112-36 106 0 192 86 192 192 0 42-14 80-36 112zM232 284c-58 42-108 92-152 148-8 10-8 18 0 28 120 140 256 206 274 214 2 2 4 2 0 0 112 46 224 40 330-8l46 44c-68 36-144 58-234 58-50 2-110-16-168-40-134-60-236-154-324-268-6-10-4-16 0-24 62-90 136-166 228-224l44 44c-16 8-30 18-44 28zM1012 468c-64 82-138 152-226 210l-42-44c76-48 142-108 200-178 6-6 8-12 2-22-76-94-166-174-282-218-50-20-98-24-152-24-62 0-122 12-176 34l-46-46c60-30 128-48 196-52 72-2 142 8 208 36 134 54 236 146 320 262 14 20 14 22-2 42z" />
<glyph unicode="&#xe08d;" glyph-name="eye.glasses" d="M832 960c-18 0-32-14-32-32s14-32 32-32c70 0 128-58 128-128v-386c-4 2-10 2-14 2h-292c-42 0-78-34-78-78v14h-128v-14c0 44-36 78-78 78h-292c-4 0-10 0-14-2v386c0 70 58 128 128 128 18 0 32 14 32 32s-14 32-32 32c-106 0-192-86-192-192v-754c0-42 36-78 78-78h292c42 0 78 36 78 78v242h128v-242c0-42 36-78 78-78h292c42 0 78 36 78 78v754c0 106-86 192-192 192zM384 0h-320v320h320zM960 0h-320v320h320z" />
<glyph unicode="&#xe08e;" glyph-name="facebook" d="M559.924 896c-94.77 0-175.924-80.664-175.924-175.432v-80.568h-128v-128h128v-512h128v512h160.538l32.462 128h-193v80.568c0 19.366 28.556 47.432 47.924 47.432h176.076v128h-176.076z" />
<glyph unicode="&#xe08f;" glyph-name="facebook.alt" d="M854 960h-684c-94 0-170-76-170-170v-684c0-94 76-170 170-170h342v448h-128v128h128v96c0 88 72 160 160 160h160v-128h-160c-18 0-32-14-32-32v-96h176l-32-128h-144v-448h214c94 0 170 76 170 170v684c0 94-76 170-170 170z" />
<glyph unicode="&#xe090;" glyph-name="feather" d="M576 454c74 74 130 98 260 68 14 14 28 26 40 38 148 150 132 304 148 400-96-16-428-2-578-150-130-132-256-476-286-618l-160-256h96l128 224c112 30 362 148 518 280-26 16-132 28-166 14zM250 254c58 88 246 448 614 612-44-46-520-488-614-612-10-12-14-20-14-20 2 6 8 12 14 20z" />
<glyph unicode="&#xe091;" glyph-name="female" d="M512 704c70 0 128 58 128 128s-58 128-128 128c-70 0-128-58-128-128s58-128 128-128zM512 896c36 0 64-28 64-64s-28-64-64-64c-36 0-64 28-64 64s28 64 64 64zM714 572c-6 40-38 68-78 68h-248c-40 0-72-28-78-68l-42-290c-6-48 30-90 78-90h38v-178c0-44 36-78 78-78h100c42 0 78 34 78 78v178h38c48 0 84 42 78 90zM688 260c-2-2-4-4-10-4h-102v-242c0-8-6-14-14-14h-100c-8 0-14 6-14 14v242h-102c-6 0-8 2-10 4-2 4-4 6-4 12l42 292c0 6 6 12 14 12h248c8 0 14-6 14-12l42-292c0-6-2-8-4-12z" />
<glyph unicode="&#xe092;" glyph-name="female.gender" d="M950 842c12 12 12 34 0 46s-34 12-44 0l-122-122-90 90c-12 12-34 12-46 0s-12-34 0-46l90-90-152-152c-2 4-6 6-10 8-52 42-120 66-192 66-178 0-322-144-322-320 0-56 14-108 38-152 42-80 118-140 208-162 2 0 4 0 6 0 0 0 0 0 0 0 22-6 46-8 70-8 0 0 0 0 0 0 32 0 64 6 94 14 0 0 2 0 2 2 2 0 2 0 4 0 124 40 214 156 220 292 0 4 0 8 0 12 0 0 0 0 0 2 0 70-24 138-64 190-2 4-4 8-8 12l152 152 90-92c12-12 34-12 46 0s12 34 0 46l-92 90 122 122zM640 322c0 0 0-2 0-2 0-2 0-6 0-8-4-108-76-202-176-236h-4c-26-8-50-12-76-12 0 0-2 0-2 0-18 0-36 2-54 6v0c-2 0-4 0-6 2-70 16-130 62-166 128-20 36-30 78-30 120 0 142 116 258 258 258 56 0 110-18 154-52 2-2 2-2 4-2 16-14 32-30 44-46 2-2 2-2 4-4 32-44 50-96 50-152z" />
<glyph unicode="&#xe093;" glyph-name="file" d="M142 960c-42 0-78-36-78-78v-868c0-42 36-78 78-78h676c42 0 78 36 78 78v690l-256 256zM832 14c0-8-6-14-14-14h-676c-8 0-14 6-14 14v868c0 8 6 14 14 14h434v-192c0-36 28-64 64-64h192zM640 704v166l166-166z" />
<glyph unicode="&#xe094;" glyph-name="file.add" d="M768 256h-64v-128h-128v-64h128v-128h64v128h128v64h-128zM142 960c-42 0-78-36-78-78v-868c0-42 36-78 78-78h498v64h-498c-8 0-14 6-14 14v868c0 8 6 14 14 14h434v-192c0-36 28-64 64-64h192v-448h64v512l-256 256zM640 704v166l166-166zM832-62c32 6 56 30 62 62h-62z" />
<glyph unicode="&#xe095;" glyph-name="file.remove" d="M576 128h320v-64h-320zM640 960h-498c-42 0-78-36-78-78v-868c0-42 36-78 78-78h676c38 0 70 28 76 64h-752c-8 0-14 6-14 14v868c0 8 6 14 14 14h434v-192c0-36 28-64 64-64h192v-448h64v512l-256 256zM640 704v166l166-166z" />
<glyph unicode="&#xe096;" glyph-name="files" d="M206 832c-42 0-78-36-78-78v-740c0-42 36-78 78-78h612c42 0 78 36 78 78v562l-256 256zM832 14c0-8-6-14-14-14h-612c-8 0-14 6-14 14v740c0 8 6 14 14 14h370v-192c0-36 28-64 64-64h192zM640 576v166l166-166zM512 960h-434c-42 0-78-36-78-78v-740c0-38 28-70 64-76v816c0 8 6 14 14 14h498z" />
<glyph unicode="&#xe097;" glyph-name="files.add" d="M512 960h-434c-42 0-78-36-78-78v-740c0-38 28-70 64-76v816c0 8 6 14 14 14h498zM896 256h-64v-128h-128v-64h128v-128h64v128h128v64h-128zM206 0c-8 0-14 6-14 14v740c0 8 6 14 14 14h370v-192c0-36 28-64 64-64h192v-192h64v256l-256 256h-434c-42 0-78-36-78-78v-740c0-42 36-78 78-78h562v64zM640 742l166-166h-166z" />
<glyph unicode="&#xe098;" glyph-name="files.remove" d="M512 960h-434c-42 0-78-36-78-78v-740c0-38 28-70 64-76v816c0 8 6 14 14 14h498zM704 128h320v-64h-320zM704 0h-498c-8 0-14 6-14 14v740c0 8 6 14 14 14h370v-192c0-36 28-64 64-64h192v-320h64v384l-256 256h-434c-42 0-78-36-78-78v-740c0-42 36-78 78-78h612c38 0 70 28 76 64h-190zM640 742l166-166h-166z" />
<glyph unicode="&#xe099;" glyph-name="filter" d="M32 832c-18 0-32-14-32-32s10-42 22-54l276-276c12-12 22-36 22-54v-448c0-18 14-32 32-32s32 14 32 32v480c0 18-10 42-22 54l-248 244c-12 12-4 22 14 22h768c18 0 26-10 14-22l-312-308c-12-12-22-36-22-54v-288c0-18 14-32 32-32s32 14 32 32v256c0 18 10 42 22 54l340 340c12 12 22 36 22 54s-14 32-32 32z" />
<glyph unicode="&#xe09a;" glyph-name="finance" d="M1008 0c8 0 16-8 16-16v-32c0-8-8-16-16-16h-992c-8 0-16 8-16 16v992c0 8 8 16 16 16h32c8 0 16-8 16-16v-928c0-8 8-16 16-16zM256 880c0 8-8 16-16 16h-96c-8 0-16-8-16-16v-352c0-8 8-16 16-16h96c8 0 16 8 16 16zM256 80c0-8-8-16-16-16h-96c-8 0-16 8-16 16v352c0 8 8 16 16 16h96c8 0 16-8 16-16zM224 400c0 8-8 16-16 16h-32c-8 0-16-8-16-16v-288c0-8 8-16 16-16h32c8 0 16 8 16 16zM448 880c0 8-8 16-16 16h-96c-8 0-16-8-16-16v-480c0-8 8-16 16-16h96c8 0 16 8 16 16zM448 80c0-8-8-16-16-16h-96c-8 0-16 8-16 16v224c0 8 8 16 16 16h96c8 0 16-8 16-16zM416 272c0 8-8 16-16 16h-32c-8 0-16-8-16-16v-160c0-8 8-16 16-16h32c8 0 16 8 16 16zM640 880c0 8-8 16-16 16h-96c-8 0-16-8-16-16v-352c0-8 8-16 16-16h96c8 0 16 8 16 16zM640 80c0-8-8-16-16-16h-96c-8 0-16 8-16 16v352c0 8 8 16 16 16h96c8 0 16-8 16-16zM608 400c0 8-8 16-16 16h-32c-8 0-16-8-16-16v-288c0-8 8-16 16-16h32c8 0 16 8 16 16zM832 880c0 8-8 16-16 16h-96c-8 0-16-8-16-16v-224c0-8 8-16 16-16h96c8 0 16 8 16 16zM832 80c0-8-8-16-16-16h-96c-8 0-16 8-16 16v480c0 8 8 16 16 16h96c8 0 16-8 16-16zM800 528c0 8-8 16-16 16h-32c-8 0-16-8-16-16v-416c0-8 8-16 16-16h32c8 0 16 8 16 16zM1024 880c0 8-8 16-16 16h-96c-8 0-16-8-16-16v-160c0-8 8-16 16-16h96c8 0 16 8 16 16zM1024 80c0-8-8-16-16-16h-96c-8 0-16 8-16 16v544c0 8 8 16 16 16h96c8 0 16-8 16-16zM992 592c0 8-8 16-16 16h-32c-8 0-16-8-16-16v-480c0-8 8-16 16-16h32c8 0 16 8 16 16z" />
<glyph unicode="&#xe09b;" glyph-name="find" d="M416 960c-230 0-416-186-416-416s186-416 416-416c92 0 176 30 246 80l252-254c14-12 30-18 46-18s32 6 46 18c24 26 24 66 0 92l-254 252c50 70 80 154 80 246 0 230-186 416-416 416zM416 192c-194 0-352 158-352 352s158 352 352 352c194 0 352-158 352-352s-158-352-352-352z" />
<glyph unicode="&#xe09c;" glyph-name="find.add" d="M416 768c-18 0-32-14-32-32v-160h-160c-18 0-32-14-32-32s14-32 32-32h160v-160c0-18 14-32 32-32s32 14 32 32v160h160c18 0 32 14 32 32s-14 32-32 32h-160v160c0 18-14 32-32 32zM416 960c-230 0-416-186-416-416s186-416 416-416c92 0 176 30 246 80l252-254c14-12 30-18 46-18s32 6 46 18c24 26 24 66 0 92l-254 252c50 70 80 154 80 246 0 230-186 416-416 416zM416 192c-194 0-352 158-352 352s158 352 352 352c194 0 352-158 352-352s-158-352-352-352z" />
<glyph unicode="&#xe09d;" glyph-name="find.remove" d="M608 576h-384c-18 0-32-14-32-32s14-32 32-32h384c18 0 32 14 32 32s-14 32-32 32zM416 960c-230 0-416-186-416-416s186-416 416-416c92 0 176 30 246 80l252-254c14-12 30-18 46-18s32 6 46 18c24 26 24 66 0 92l-254 252c50 70 80 154 80 246 0 230-186 416-416 416zM416 192c-194 0-352 158-352 352s158 352 352 352c194 0 352-158 352-352s-158-352-352-352z" />
<glyph unicode="&#xe09e;" glyph-name="fire" d="M480-64c-242 0-416 168-416 398 0 122 74 254 76 260 6 12 20 18 32 16 14-2 24-10 28-24 0 0 20-74 46-116 18-26 34-46 54-60-12 58-24 148-6 238 46 248 242 308 250 310 12 4 22 2 32-6 8-8 12-20 8-30 0-2-32-176 36-324 8-14 16-30 26-46 2 22 6 44 12 68 26 88 90 118 94 118 10 6 22 4 32-4 10-6 14-18 12-30 0-2-10-62 42-148 46-76 58-126 58-222 0-230-172-398-416-398zM164 492c-18-44-36-104-36-158 0-194 148-334 352-334 206 0 352 140 352 334 0 84-10 122-50 190-26 44-40 84-46 116-6-10-12-24-16-38-20-68-14-148-14-150 0-14-8-28-22-32s-28 0-36 12c-4 4-60 84-86 138-52 114-50 236-46 306-52-32-132-100-158-240-26-136 22-272 24-274 4-10 2-24-6-32s-20-12-32-10c-4 0-94 24-152 116-10 16-20 36-28 56v0z" />
<glyph unicode="&#xe09f;" glyph-name="flag" d="M834 704h-322v2c0 70-56 126-126 126h-322v96c0 18-14 32-32 32s-32-14-32-32v-992h64v320h384v-2c0-70 56-126 126-126h260c70 0 126 56 126 126v324c0 70-56 126-126 126zM448 704v-384h-384v448h322c34 0 62-28 62-62zM896 254c0-34-28-62-62-62h-260c-34 0-62 28-62 62v386h322c34 0 62-28 62-62z" />
<glyph unicode="&#xe0a0;" glyph-name="floppy" d="M576 832h64v-128h-64zM192 960h-114c-42 0-78-36-78-78v-868c0-42 36-78 78-78h868c42 0 78 36 78 78v690l-256 256zM704 896v-256h-448v256zM256 0v384h512v-384zM960 678v-664c0-8-6-14-14-14h-114v448h-640v-448h-114c-8 0-14 6-14 14v868c0 8 6 14 14 14h114v-320h576v294z" />
<glyph unicode="&#xe0a1;" glyph-name="flow.tree" d="M896 238v210c0 36-28 64-64 64h-256v146c38 22 64 62 64 110 0 70-58 128-128 128s-128-58-128-128c0-48 26-88 64-110v-146h-256c-36 0-64-28-64-64v-210c-38-22-64-62-64-110 0-70 58-128 128-128s128 58 128 128c0 48-26 88-64 110v146h192v-144c-38-22-64-62-64-110 0-70 58-128 128-128s128 58 128 128c0 48-26 88-64 110v144h192v-146c-38-22-64-62-64-110 0-70 58-128 128-128s128 58 128 128c0 48-26 88-64 110zM512 832c36 0 64-28 64-64s-28-64-64-64c-36 0-64 28-64 64s28 64 64 64zM192 64c-36 0-64 28-64 64s28 64 64 64c36 0 64-28 64-64s-28-64-64-64zM512 66c-36 0-64 28-64 64s28 64 64 64c36 0 64-28 64-64s-28-64-64-64zM832 64c-36 0-64 28-64 64s28 64 64 64c36 0 64-28 64-64s-28-64-64-64z" />
<glyph unicode="&#xe0a2;" glyph-name="folder" d="M960 576v128c0 35.4-28.6 64-64 64h-512v64c0 35.4-28.6 64-64 64h-256c-35.4 0-64-28.6-64-64v-768c0-70.6 57.4-128 128-128v0h832c35.4 0 64 28.6 64 64v544c0 17.6-14.4 32-32 32h-32zM128 0c-35.4 0-64 28.6-64 64v752c0 8.8 7.2 16 16 16h224c8.8 0 16-7.2 16-16v-112h560c8.8 0 16-7.2 16-16v-112h-640c-35.4 0-64-28.6-64-64v-448c0-35.4-28.6-64-64-64v0zM944 0h-705.2c10.8 18.8 17.2 40.6 17.2 64v432c0 8.8 7.2 16 16 16h672c8.8 0 16-7.2 16-16v-480c0-8.8-7.2-16-16-16z" />
<glyph unicode="&#xe0a3;" glyph-name="folder.add" d="M238.8 0c10.8 18.8 17.2 40.6 17.2 64v432c0 8.8 7.2 16 16 16h672c8.8 0 16-7.2 16-16v-304h64v352c0 17.6-14.4 32-32 32h-32v128c0 35.4-28.6 64-64 64h-512v64c0 35.4-28.6 64-64 64h-256c-35.4 0-64-28.6-64-64v-768c0-70.6 57.4-128 128-128h640v64h-529.2zM192 512v-448c0-35.4-28.6-64-64-64s-64 28.6-64 64v752c0 8.8 7.2 16 16 16h224c8.8 0 16-7.2 16-16v-112h560c8.8 0 16-7.2 16-16v-112h-640c-35.4 0-64-28.6-64-64zM1024 96v0c0-17.6-14.4-32-32-32h-96v-96c0-17.6-14.4-32-32-32s-32 14.4-32 32v96h-96c-17.6 0-32 14.4-32 32v0c0 17.6 14.4 32 32 32h96v96c0 17.6 14.4 32 32 32s32-14.4 32-32v-96h96c17.6 0 32-14.4 32-32z" />
<glyph unicode="&#xe0a4;" glyph-name="folder.open" d="M64 640h-64v192c0 35.4 28.6 64 64 64h256c35.4 0 64-28.6 64-64v-64h576c35.4 0 64-28.6 64-64v-64h-64v48c0 8.8-7.2 16-16 16h-624v112c0 8.8-7.2 16-16 16h-224c-8.8 0-16-7.2-16-16v-176zM960 576v0c35.4 0 64-28.6 64-64v-512c0-35.4-28.6-64-64-64h-832c-70.6 0-128 57.4-128 128v480c0 17.6 14.4 32 32 32v0c17.6 0 32-14.4 32-32v-480c0-35.4 28.6-64 64-64v0c35.4 0 64 28.6 64 64v448c0 35.4 28.6 64 64 64h704zM960 496c0 8.8-7.2 16-16 16h-672c-8.8 0-16-7.2-16-16v-432c0-23.4-6.2-45.2-17.2-64h705.2c8.8 0 16 7.2 16 16v480z" />
<glyph unicode="&#xe0a5;" glyph-name="folder.remove" d="M238.8 0c10.8 18.8 17.2 40.6 17.2 64v432c0 8.8 7.2 16 16 16h672c8.8 0 16-7.2 16-16v-304h64v352c0 17.6-14.4 32-32 32h-32v128c0 35.4-28.6 64-64 64h-512v64c0 35.4-28.6 64-64 64h-256c-35.4 0-64-28.6-64-64v-768c0-70.6 57.4-128 128-128h832c35.4 0 64 28.6 64 64h-785.2zM192 512v-448c0-35.4-28.6-64-64-64s-64 28.6-64 64v752c0 8.8 7.2 16 16 16h224c8.8 0 16-7.2 16-16v-112h560c8.8 0 16-7.2 16-16v-112h-640c-35.4 0-64-28.6-64-64zM704 96v0c0 17.6 14.4 32 32 32h256c17.6 0 32-14.4 32-32v0c0-17.6-14.4-32-32-32h-256c-17.6 0-32 14.4-32 32z" />
<glyph unicode="&#xe0a6;" glyph-name="food.dome" d="M544 704v64h64c18 0 32 14 32 32s-14 32-32 32h-192c-18 0-32-14-32-32s14-32 32-32h64v-62c0-2 0-2 0-2s0 0 0 0c-268-16-480-240-480-512v-32c0-18 14-32 32-32h960c18 0 32 14 32 32v32c0 272-212 496-480 512zM64 192c0 248 200 448 448 448s448-200 448-448zM1024 32c0-18-14-32-32-32h-960c-18 0-32 14-32 32s14 32 32 32h960c18 0 32-14 32-32z" />
<glyph unicode="&#xe0a7;" glyph-name="football" d="M982 650c-28 62-64 116-110 162-44 46-98 80-162 108-62 26-130 40-198 40h-4c-70 0-136-14-200-42-62-28-116-64-162-110s-80-102-106-166c-28-62-40-126-40-194v-6c0-68 14-134 42-196 26-62 64-116 110-162 44-46 100-82 162-108 64-26 130-40 198-40h6c70 0 134 14 198 42s116 64 162 112c46 46 82 100 108 164 24 62 38 126 38 194v6c0 70-14 134-42 196zM940 312l-54 20c-4 2-8 2-12 2-10 0-18-4-24-14l-106-154c-8-10-8-24 0-34l32-48c-76-56-162-82-258-84v64c-2 16-10 26-24 30l-176 52c-4 2-8 2-12 2-10 0-16-4-22-12l-40-50c-22 18-40 34-50 44-50 48-84 104-106 170l54 22c12 6 20 16 20 30v186c0 14-12 26-24 30l-54 16c28 90 80 164 156 222l42-50c6-8 14-12 24-12 2 0 6 0 10 2l178 56c14 4 20 16 20 30v64c92 0 178-26 256-80l-38-58c-4-6-6-12-6-18s2-12 6-18l110-150c6-10 14-14 22-14 4 0 8 0 12 2l66 22c14-40 18-88 18-134 0-50-4-90-18-134l-2-2zM352 584c-18-4-32-22-32-40v-192c0-18 14-36 32-40l192-48c18-4 40 4 50 18l92 140c10 14 10 38 0 52l-92 140c-10 14-32 22-50 18l-192-48z" />
<glyph unicode="&#xe0a8;" glyph-name="forward" d="M1000 498l-384 312c-12 10-26 14-40 14-32 0-64-26-64-64v-260c0 2-2 2-2 2l-406 310c-12 10-26 16-40 16-32 0-64-26-64-64v-628c0-38 32-64 64-64 14 0 28 6 40 16l406 314c0 0 2 0 2 0v-268c0-38 32-64 64-64 14 0 28 4 40 14l384 316c32 26 32 74 0 98zM470 450l-406-314v626l406-310c0 0 0 0 0 0s0 0 0-2zM576 134v626l384-310-384-316z" />
<glyph unicode="&#xe0a9;" glyph-name="gamepad" d="M256 640h-64v-64h-64v-64h64v-64h64v64h64v64h-64zM896 768h-64c0 36-28 64-64 64h-64c-36 0-64-28-64-64v0h-256c0 36-28 64-64 64h-64c-36 0-64-28-64-64v0h-64c-70 0-128-58-128-128v-450c0-104 86-190 190-190h4c104 0 190 86 190 190v130h256v-130c0-104 86-190 190-190h4c104 0 190 86 190 190v450c0 70-58 128-128 128zM960 320v-130c0-70-56-126-126-126h-4c-70 0-126 56-126 126v194h-384v-194c0-70-56-126-126-126h-4c-70 0-126 56-126 126v450c0 36 28 64 64 64h768c36 0 64-28 64-64zM704 640h64v-64h-64zM832 640h64v-64h-64zM832 512h64v-64h-64zM704 512h64v-64h-64zM544 576h-64c-18 0-32-14-32-32v0c0-18 14-32 32-32h64c18 0 32 14 32 32v0c0 18-14 32-32 32z" />
<glyph unicode="&#xe0aa;" glyph-name="ghost" d="M480 960c-230 0-416-200-416-446v-546c0-14 8-26 20-30 4-2 8-2 12-2 10 0 18 4 24 10l120 134 96-130c4-10 14-14 24-14v0c12 0 20 4 26 12l96 128 92-126c6-10 16-14 26-14s20 4 26 14l96 130 118-134c8-10 22-12 36-8 12 4 20 16 20 30v546c0 246-188 446-416 446zM832 52l-88 100c-8 6-16 10-26 10s-18-6-24-12l-94-128-92 126c-6 10-16 14-26 14v0c-10 0-20-4-26-12l-94-128-92 128c-6 6-16 12-24 12-2 0-2 0-2 0-10 0-18-4-24-10l-92-100v462c0 210 158 382 352 382s352-172 352-382v-462zM640 608c-36 0-64-28-64-64s28-64 64-64c36 0 64 28 64 64s-28 64-64 64zM320 608c-36 0-64-28-64-64s28-64 64-64c36 0 64 28 64 64s-28 64-64 64z" />
<glyph unicode="&#xe0ab;" glyph-name="gift" d="M946 704h-198c16 10 32 24 46 38 24 24 38 56 38 90s-14 66-38 90c-24 24-56 38-90 38s-66-14-90-38c-76-76-98-194-102-208v0c-4 14-26 132-102 208-24 24-56 38-90 38s-66-14-90-38c-24-24-38-56-38-90s14-66 38-90c14-14 30-28 46-38h-198c-44 0-78-36-78-78v-164c0-38 28-70 64-76v-372c0-42 34-78 78-78h740c42 0 78 36 78 78v372c36 6 64 38 64 76v164c0 42-36 78-78 78zM658 878c14 12 30 18 46 18s32-6 46-18c24-26 24-66 0-92-64-64-174-82-174-82s18 110 82 174zM274 786c-24 26-24 66 0 92 14 12 30 18 46 18s32-6 46-18c64-64 82-174 82-174s-110 18-174 82zM896 14c0-8-6-14-14-14h-740c-8 0-14 6-14 14v370h768zM960 462c0-8-6-14-14-14h-868c-8 0-14 6-14 14v164c0 8 6 14 14 14h868c8 0 14-6 14-14v-164z" />
<glyph unicode="&#xe0ac;" glyph-name="github" d="M0 404c0-46 4-88 12-126 10-38 22-70 38-98 14-28 34-52 58-74 24-20 50-38 76-50 28-14 60-26 96-34s72-14 108-18c38-2 78-4 122-4 46 0 86 2 124 4 36 4 72 10 108 18s68 20 96 34c28 12 54 30 78 50 24 22 44 46 58 74 16 28 28 60 38 98 8 38 12 80 12 126 0 82-28 154-84 214 4 8 6 18 10 28 2 10 4 24 6 44 2 18 2 40-2 64-4 26-12 50-22 76l-6 2c-6 0-16 0-28-2-12 0-26-4-42-8s-36-14-62-26c-26-14-52-30-82-48-48 12-114 20-200 20-84 0-152-8-200-20-28 18-56 34-82 48-26 12-46 22-62 26s-30 8-42 8c-14 2-22 2-26 2s-6-2-8-2c-10-26-18-50-22-76-4-24-4-46-2-64 2-20 4-34 6-44 4-10 6-20 10-28-56-60-84-132-84-214zM126 278c0 48 22 92 66 132 12 12 28 22 44 28 18 6 38 10 60 10s42 0 62 0c20-2 46-4 74-6 30-2 56-2 76-2 22 0 48 0 76 2 30 2 54 4 76 6 20 0 40 0 62 0s42-4 58-10c18-6 34-16 46-28 44-40 66-84 66-132 0-28-4-54-10-76-8-22-18-42-28-56-12-16-28-28-48-38-18-12-38-20-58-24-18-6-42-12-72-14-30-4-56-6-78-6-24 0-54 0-90 0-34 0-64 0-88 0-22 0-50 2-78 6-30 4-54 8-74 14-18 4-38 12-58 24-20 10-34 22-46 38-12 14-20 34-28 56-6 22-10 48-10 76zM640 288c0 54 28 96 64 96s64-42 64-96c0-54-28-96-64-96s-64 42-64 96zM256 288c0 54 28 96 64 96s64-42 64-96c0-54-28-96-64-96s-64 42-64 96z" />
<glyph unicode="&#xe0ad;" glyph-name="globe" d="M930 544c0 168-90 324-238 412-16 8-36 4-44-12-10-14-4-34 12-44 128-76 206-210 206-356 0-242-176-416-418-416-56 0-108 10-158 30-16 6-34-2-40-18-8-16 0-36 16-42 58-24 118-36 182-36 0 0 0 0 0 0v-62h-94c-18 0-32-14-32-32s14-32 32-32h254c18 0 34 14 34 32s-16 32-34 32h-96v66c246 30 418 220 418 478zM800 544c0 194-158 352-354 352-194 0-352-158-352-352s158-352 352-352c196 0 354 158 354 352zM158 542c0 160 130 290 288 290 160 0 290-130 290-290 0-158-130-288-290-288-158 0-288 130-288 288v0z" />
<glyph unicode="&#xe0ae;" glyph-name="google" d="M790 896c0 0-202 0-268 0-120 0-234-92-234-196 0-108 82-196 204-196 8 0 18 2 26 2-8-16-14-32-14-50 0-30 16-54 36-74-16 0-30 0-46 0-150 0-264-96-264-194 0-96 126-158 274-158 170 0 264 98 264 194 0 78-22 124-94 174-24 18-70 58-70 84 0 28 8 42 52 76s74 84 74 140c0 68-30 132-86 154h86l60 44zM696 240c2-8 4-18 4-28 0-78-52-138-196-138-102 0-176 64-176 142s92 142 194 140c24 0 46-4 66-10 56-40 96-62 108-106zM532 532c-70 2-136 78-148 168s36 160 104 158c70-2 134-74 146-166 12-90-34-162-102-160z" />
<glyph unicode="&#xe0af;" glyph-name="google.drive" d="M460 300l-172-296h566l170 296zM976 384l-294 508h-340l292-508zM292 808l-292-508 170-296 294 508z" />
<glyph unicode="&#xe0b0;" glyph-name="google.plus" d="M560 896c0 0-202 0-268 0-120 0-234-92-234-196 0-108 82-196 204-196 8 0 16 2 24 2-6-16-12-32-12-50 0-30 16-54 36-74-16 0-30 0-46 0-150 0-264-96-264-194 0-96 126-158 274-158 170 0 264 98 264 194 0 78-24 124-94 174-24 18-70 58-70 84 0 28 8 42 50 76 46 34 76 84 76 140 0 68-30 132-86 154h86l60 44zM466 240c2-8 2-18 2-28 0-78-50-138-194-138-104 0-178 64-178 142s92 142 196 140c24 0 46-4 66-10 56-40 96-62 108-106zM300 532c-68 2-134 78-146 168s34 160 104 158c68-2 134-74 146-166 12-90-34-162-104-160zM832 704v192h-64v-192h-192v-64h192v-192h64v192h192v64z" />
<glyph unicode="&#xe0b1;" glyph-name="grid" d="M0 896v-320c0-36 28-64 64-64h320c36 0 64 28 64 64v320c0 36-28 64-64 64h-320c-36 0-64-28-64-64zM64 896h320v-320h-320zM0 0c0-36 28-64 64-64h320c36 0 64 28 64 64v320c0 36-28 64-64 64h-320c-36 0-64-28-64-64zM64 320h320v-320h-320zM576 896v-320c0-36 28-64 64-64h320c36 0 64 28 64 64v320c0 36-28 64-64 64h-320c-36 0-64-28-64-64zM640 896h320v-320h-320zM576 0c0-36 28-64 64-64h320c36 0 64 28 64 64v320c0 36-28 64-64 64h-320c-36 0-64-28-64-64zM640 320h320v-320h-320z" />
<glyph unicode="&#xe0b2;" glyph-name="hdd" d="M960 832c-4 62-58 128-128 128h-640c-70 0-124-66-128-128l-64-686c0-2 0-6 0-10 0-2 0-4 0-8v-64c0-70 58-128 128-128h768c70 0 128 58 128 128v64c0 4 0 6 0 8 0 4 0 8 0 10zM64 64v64c0 36 28 64 64 64h768c36 0 64-28 64-64v-64c0-36-28-64-64-64h-768c-36 0-64 28-64 64zM128 828c2 32 30 68 64 68h640c34 0 62-36 64-70l54-582c-16 8-34 12-54 12h-768c-20 0-38-4-54-12zM832 96c0-18 14-32 32-32s32 14 32 32c0 18-14 32-32 32s-32-14-32-32zM704 96c0-18 14-32 32-32s32 14 32 32c0 18-14 32-32 32s-32-14-32-32zM160 64h448c18 0 32 14 32 32s-14 32-32 32h-448c-18 0-32-14-32-32s14-32 32-32z" />
<glyph unicode="&#xe0b3;" glyph-name="headphones" d="M960 272v176c0 248-200 448-448 448s-448-200-448-448v-176c-40-36-64-88-64-144 0-106 86-192 192-192h64v384h-64c-22 0-44-4-64-10v138c0 212 172 384 384 384s384-172 384-384v-138c-20 6-42 10-64 10h-64v-384h64c106 0 192 86 192 192 0 56-24 108-64 144zM192 256v-256c-70 0-128 58-128 128s58 128 128 128zM832 0v256c70 0 128-58 128-128s-58-128-128-128z" />
<glyph unicode="&#xe0b4;" glyph-name="heart" d="M768 832c52 0 100-20 136-56 74-76 74-196 0-272l-392-392-392 392c-74 76-74 196 0 272 36 36 84 56 136 56s100-20 136-56l120-120 120 120c36 36 84 56 136 56zM768 896c-66 0-132-26-182-74l-74-76-74 76c-50 50-116 74-182 74s-132-26-182-74c-100-100-100-264 0-362l438-438 438 438c100 98 100 262 0 362-50 50-116 74-182 74z" />
<glyph unicode="&#xe0b5;" glyph-name="heart.broken" d="M512-64c0 0 512 338 512 672 0 144-88 288-256 288-112 0-208-56-256-138-48 82-144 138-256 138-168 0-256-144-256-288 0-334 512-672 512-672zM768 832c132 0 192-116 192-224 0-258-346-522-444-586l82 100c14 12 14 32 0 44l-72 74 72 74c14 12 14 32 0 44l-72 74 104 106c14 12 14 32 0 44l-84 84c16 104 122 166 222 166v0zM256 832c108 0 224-76 224-194h4c2-2 4-2 6-4l72-74-104-106c-14-12-14-32 0-44l72-74-72-74c-14-12-14-32 0-44l72-74-82-80c-130 90-384 316-384 544 0 108 60 224 192 224z" />
<glyph unicode="&#xe0b6;" glyph-name="help" d="M1024 448c0 282-230 512-512 512s-512-230-512-512c0-282 230-512 512-512 130 0 248 48 338 126 106 94 174 232 174 386zM850 154l-122 120 58 214 166 44c6-28 8-56 8-84 0-112-42-216-110-294zM936 594l-166-44-158 156 46 166c130-46 232-148 278-278zM632 282l-178-48-156 156 56 212 214 58 156-156-58-214-34-8zM596 888l-44-166-214-58-120 122c78 68 182 110 294 110 28 0 56-2 84-8zM172 740l120-120-56-214-164-44c-6 28-8 56-8 86 0 112 40 214 108 292zM90 300l162 44 156-156-44-162c-128 44-230 146-274 274zM426 8l44 164 214 56 120-120c-78-68-180-108-292-108-30 0-58 4-86 8z" />
<glyph unicode="&#xe0b7;" glyph-name="home" d="M1024 458c0 0-2 2-2 2 0 2 0 2 0 4 0 0 0 2 0 2-2 2-2 2-2 4 0 0 0 2 0 2-2 2-2 2-2 4 0 0-2 2-2 2 0 2 0 2-2 2 0 2 0 2 0 4-2 0-2 2-2 2-2 0-2 2-2 2-2 2-4 4-4 6l-448 448c-12 10-28 18-46 18s-34-8-46-18l-448-448c0-2-2-4-4-6 0 0 0-2-2-2 0 0 0-2-2-2 0-2 0-2 0-4-2 0-2-2-2-2s-2-2-2-2c0-2 0-2-2-4 0 0 0-2 0-2 0-2 0-2-2-4 0 0 0-2 0-2 0-2 0-2 0-4-2 0-2-2-2-2 0-2 0-2 0-4 0-4 0-8 0-12 0-2 0-2 0-4 0 0 0-2 2-2 0-2 0-2 0-4 0 0 0-2 0-2 2-2 2-2 2-4 0 0 0-2 0-2 2-2 2-2 2-4 0 0 2-2 2-2 0-2 0-2 2-2 0-2 0-2 0-4 2 0 2-2 2-2 2-2 2-2 2-2 4-4 6-6 10-10 0 0 0 0 2-2 0 0 2 0 2-2 2 0 2 0 4 0 0-2 0-2 2-2 0 0 2-2 2-2 2 0 2 0 4-2 0 0 2 0 2 0 2 0 2 0 4-2 0 0 2 0 2 0 2 0 2 0 4 0 0 0 2-2 2-2 2 0 2 0 4 0s4 0 6 0h64v-370c0-42 34-78 78-78h242v320h128v-320h242c42 0 78 36 78 78v370h64c2 0 4 0 6 0 0 0 2 0 2 0 2 0 4 2 4 2 2 0 2 0 4 0 0 0 2 0 2 0 2 2 2 2 4 2 0 0 2 0 2 0 2 2 2 2 2 2 2 0 2 2 4 2 0 0 2 0 2 2 2 0 2 0 4 0 0 2 2 2 2 2 0 2 2 2 2 2 4 4 6 6 10 10 0 0 0 0 0 2 2 0 2 2 2 2 2 2 2 2 2 4 0 0 2 0 2 2 0 0 0 2 2 2 0 2 0 2 0 4 2 0 2 2 2 2 0 2 0 2 0 4 2 0 2 2 2 2 0 2 0 2 0 4 0 0 0 2 0 2 0 2 2 2 2 4 0 4 0 8 0 12 0 2-2 2-2 4zM960 448h-128v-434c0-8-6-14-14-14h-178v320h-256v-320h-178c-8 0-14 6-14 14v434h-128l448 448c0 0 0 0 0 0l448-448z" />
<glyph unicode="&#xe0b8;" glyph-name="home.alt" d="M960 960h-896l-62-438c-2-8-2-16-2-22 4-32 18-58 38-78 8-8 16-16 26-20v-388c0-42 36-78 78-78h306v320h128v-320h306c44 0 78 36 78 78v388c10 4 18 12 26 20 22 20 34 48 38 78 0 6 0 14-2 22l-62 438zM64 508c2 2 2 4 2 4l54 384h784l56-384c0 0 0-2 0-4s0-2 0-2c-2-14-8-28-18-40-12-12-28-18-46-18-16 0-32 6-44 18-14 12-20 28-20 46 0 36-28 64-64 64s-64-28-64-64c0-36-28-64-64-64s-64 28-64 64c0 36-28 64-64 64s-64-28-64-64c0-36-28-64-64-64s-64 28-64 64c0 36-28 64-64 64s-64-28-64-64c0-18-6-34-18-46s-28-18-46-18c-16 0-32 6-44 18s-18 26-20 40c0 0 0 0 0 2zM882 0h-242v320h-256v-320h-242c-8 0-14 6-14 14v370c0 0 0 0 0 0 36 0 68 14 90 38 24 22 38 54 38 90 0-70 58-128 128-128s128 58 128 128c0-70 58-128 128-128s128 58 128 128c0-36 14-68 38-90 22-24 54-38 90-38v-370c0-8-6-14-14-14z" />
<glyph unicode="&#xe0b9;" glyph-name="hourglass" d="M832 0h-64v224c0 124-100 224-224 224 124 0 224 100 224 224v224h64c18 0 32 14 32 32s-14 32-32 32h-640c-18 0-32-14-32-32s14-32 32-32h64v-224c0-124 100-224 224-224-124 0-224-100-224-224v-224h-64c-18 0-32-14-32-32s14-32 32-32h640c18 0 32 14 32 32s-14 32-32 32zM320 672c0 56 0 224 0 224h384c0 0 0-172 0-224 0-88-76-160-168-160h-48c-92 0-168 72-168 160zM704 0h-384c0 0 0 168 0 224 0 88 76 160 168 160h48c92 0 168-72 168-160 0-52 0-224 0-224z" />
<glyph unicode="&#xe0ba;" glyph-name="house" d="M992 416c-8 0-16 4-22 10l-458 456-458-456c-6-6-14-10-22-10-18 0-32 14-32 32 0 8 4 16 10 22l480 480c6 6 14 10 22 10s16-4 22-10l480-480c6-6 10-14 10-22 0-18-14-32-32-32zM832-64h-640c-36 0-64 28-64 64v384c0 36 28 64 64 64v-448h128v320c0 36 28 64 64 64h256c36 0 64-28 64-64v-320h128v448c36 0 64-28 64-64v-384c0-36-28-64-64-64zM640 320h-256v-320h256z" />
<glyph unicode="&#xe0bb;" glyph-name="html5" d="M60 960l82-922 370-102 370 102 82 922zM810 98l-296-84h-2l-298 82-70 788h738l-72-786zM650 430l-12-146-126-34-126 34-8 90h-114l16-178 232-64 232 64 30 346h-412l-10 116h432l10 114h-566l30-342h392z" />
<glyph unicode="&#xe0bc;" glyph-name="ice.cream" d="M576 960h-128c-106 0-192-86-192-192v-448c0-36 28-64 64-64h128v-256c0-36 28-64 64-64s64 28 64 64v256h128c36 0 64 28 64 64v448c0 106-86 192-192 192zM704 320h-384v448c0 70 58 128 128 128h128c70 0 128-58 128-128z" />
<glyph unicode="&#xe0bd;" glyph-name="idea" d="M512 928c0-18-14-32-32-32s-32 14-32 32 14 32 32 32 32-14 32-32zM960 480c0-18-14-32-32-32s-32 14-32 32 14 32 32 32 32-14 32-32zM64 480c0-18-14-32-32-32s-32 14-32 32 14 32 32 32 32-14 32-32zM832 800c0-16-14-32-32-32-16 0-32 16-32 32 0 18 16 32 32 32 18 0 32-14 32-32zM192 160c0-18-16-32-32-32-18 0-32 14-32 32 0 16 14 32 32 32 16 0 32-16 32-32zM192 800c0-16-16-32-32-32-18 0-32 16-32 32 0 18 14 32 32 32 16 0 32-14 32-32zM832 160c0-18-14-32-32-32-16 0-32 14-32 32 0 16 16 32 32 32 18 0 32-16 32-32zM480 768c-4 0-6 0-10 0-148-4-270-124-278-274-4-106 48-200 128-254v-178c0-70 56-126 126-126h68c70 0 126 56 126 126v178c78 52 128 140 128 240 0 160-128 288-288 288zM576 62c0-34-28-62-62-62h-68c-34 0-62 28-62 62v2h192v-2zM604 294l-28-20v-146h-192v146l-28 20c-66 44-104 118-100 198 6 114 100 208 216 212 4 0 6 0 8 0 124 0 224-100 224-224 0-74-38-144-100-186z" />
<glyph unicode="&#xe0be;" glyph-name="inbox" d="M896 896h-768l-128-384v-448c0-36 28-64 64-64h896c36 0 64 28 64 64v448zM174 832h676l106-320h-188l-128-192h-256l-128 192h-188l106 320zM960 64h-896v384h158l128-192h324l128 192h158z" />
<glyph unicode="&#xe0bf;" glyph-name="indent" d="M960 704h-448c-35.4 0-64 28.6-64 64v0c0 35.4 28.6 64 64 64h448c35.4 0 64-28.6 64-64v0c0-35.4-28.6-64-64-64zM1024 128v0c0 35.4-28.6 64-64 64h-448c-35.4 0-64-28.6-64-64v0c0-35.4 28.6-64 64-64h448c35.4 0 64 28.6 64 64zM1024 448v0c0 35.4-28.6 64-64 64h-448c-35.4 0-64-28.6-64-64v0c0-35.4 28.6-64 64-64h448c35.4 0 64 28.6 64 64zM309.2 491.4v0l-135.8 135.8c-25 25-65.6 25-90.6 0v0c-25-25-25-65.6 0-90.6l90.6-90.6-90.6-90.6c-25-25-25-65.6 0-90.6v0c25-25 65.6-25 90.6 0l135.8 135.8c25 25.4 25 65.8 0 90.8z" />
<glyph unicode="&#xe0c0;" glyph-name="info.sign" d="M576 640c0-36-28-64-64-64s-64 28-64 64c0 36 28 64 64 64s64-28 64-64zM512 512c-36 0-64-28-64-64v-192c0-36 28-64 64-64s64 28 64 64v192c0 36-28 64-64 64zM512 960c-282 0-512-230-512-512s230-512 512-512c282 0 512 230 512 512s-230 512-512 512zM512 0c-248 0-448 200-448 448s200 448 448 448c248 0 448-200 448-448s-200-448-448-448z" />
</font>
</defs>
</svg>
